<svg xmlns="http://www.w3.org/2000/svg" xmlns:xlink="http://www.w3.org/1999/xlink" viewBox="0 0 48 48"><defs><style>.cls-1{fill:none;}.cls-2{fill:url(#名称未設定グラデーション_171);}.cls-3{clip-path:url(#clip-path);}.cls-4{fill:#fff;}</style><linearGradient id="名称未設定グラデーション_171" y1="24" x2="48" y2="24" gradientUnits="userSpaceOnUse"><stop offset="0" stop-color="#fcb921"/><stop offset="1" stop-color="#fc7f24"/></linearGradient><clipPath id="clip-path"><path class="cls-1" d="M36.365,28.346c.42967-2.61973-.06673-6.01836-2.9433-6.186-3.45658-.20148-4.93778,5.70895-4.22246,8.43026a5.3107,5.3107,0,0,1-.62094,4.41344c-1.20654,1.69435-1.9259,4.65937.33818,5.718,1.54477.75913,3.22049-.7549,3.767-2.31995.21306-.67635.34793-1.40745.53423-2.01587C34.35781,32.66236,35.85217,31.75677,36.365,28.346Z"/></clipPath></defs><g id="レイヤー_2" data-name="レイヤー 2"><g id="blog"><rect class="cls-2" width="48" height="48"/></g><g id="足跡"><g class="cls-3"><rect class="cls-1" x="21.48849" y="34.66121" width="1.3662" height="1.3662" transform="translate(-11.84129 11.17979) rotate(-22.50786)"/><rect class="cls-4" x="22.12847" y="34.53387" width="0.70087" height="1.3662" transform="matrix(0.92383, -0.38281, 0.38281, 0.92383, -11.76913, 11.28774)"/><rect class="cls-1" x="21.48849" y="34.66121" width="1.3662" height="1.3662" transform="translate(-11.84129 11.17979) rotate(-22.50786)"/><rect class="cls-1" x="20.96549" y="33.39908" width="1.3662" height="1.3662" transform="translate(-11.39797 10.88344) rotate(-22.50786)"/><rect class="cls-4" x="21.60548" y="33.27174" width="0.70087" height="1.3662" transform="translate(-11.32581 10.99139) rotate(-22.50786)"/><rect class="cls-1" x="20.96549" y="33.39908" width="1.3662" height="1.3662" transform="translate(-11.39797 10.88344) rotate(-22.50786)"/><rect class="cls-1" x="24.3196" y="37.92461" width="1.3662" height="1.3662" transform="translate(-12.8749 12.51215) rotate(-22.50786)"/><rect class="cls-4" x="24.95959" y="37.79727" width="0.70087" height="1.3662" transform="matrix(0.92383, -0.38281, 0.38281, 0.92383, -12.80274, 12.6201)"/><rect class="cls-1" x="24.3196" y="37.92461" width="1.3662" height="1.3662" transform="translate(-12.8749 12.51215) rotate(-22.50786)"/><rect class="cls-1" x="23.79661" y="36.66248" width="1.3662" height="1.3662" transform="translate(-12.43158 12.21581) rotate(-22.50786)"/><rect class="cls-4" x="24.43659" y="36.53513" width="0.70087" height="1.3662" transform="translate(-12.35942 12.32375) rotate(-22.50786)"/><rect class="cls-1" x="23.79661" y="36.66248" width="1.3662" height="1.3662" transform="translate(-12.43158 12.21581) rotate(-22.50786)"/><rect class="cls-1" x="23.27361" y="35.40035" width="1.3662" height="1.3662" transform="translate(-11.98826 11.91946) rotate(-22.50786)"/><rect class="cls-4" x="23.9136" y="35.273" width="0.70087" height="1.3662" transform="translate(-11.9161 12.0274) rotate(-22.50786)"/><rect class="cls-1" x="23.27361" y="35.40035" width="1.3662" height="1.3662" transform="translate(-11.98826 11.91946) rotate(-22.50786)"/><rect class="cls-1" x="22.75062" y="34.13822" width="1.3662" height="1.3662" transform="translate(-11.54494 11.62311) rotate(-22.50786)"/><rect class="cls-4" x="23.3906" y="34.01087" width="0.70087" height="1.3662" transform="translate(-11.47278 11.73106) rotate(-22.50786)"/><rect class="cls-1" x="22.75062" y="34.13822" width="1.3662" height="1.3662" transform="translate(-11.54494 11.62311) rotate(-22.50786)"/><rect class="cls-1" x="22.22762" y="32.87609" width="1.3662" height="1.3662" transform="translate(-11.10162 11.32676) rotate(-22.50786)"/><rect class="cls-4" x="22.86761" y="32.74874" width="0.70087" height="1.3662" transform="matrix(0.92383, -0.38281, 0.38281, 0.92383, -11.02946, 11.43471)"/><rect class="cls-1" x="22.22762" y="32.87609" width="1.3662" height="1.3662" transform="translate(-11.10162 11.32676) rotate(-22.50786)"/><rect class="cls-1" x="21.70463" y="31.61396" width="1.3662" height="1.3662" transform="translate(-10.6583 11.03041) rotate(-22.50786)"/><rect class="cls-4" x="22.34461" y="31.48661" width="0.70087" height="1.3662" transform="translate(-10.58614 11.13836) rotate(-22.50786)"/><rect class="cls-1" x="21.70463" y="31.61396" width="1.3662" height="1.3662" transform="translate(-10.6583 11.03041) rotate(-22.50786)"/><rect class="cls-1" x="26.62772" y="39.92588" width="1.3662" height="1.3662" transform="translate(-13.46518 13.54817) rotate(-22.50786)"/><rect class="cls-4" x="27.26771" y="39.79853" width="0.70087" height="1.3662" transform="translate(-13.39303 13.65611) rotate(-22.50786)"/><rect class="cls-1" x="26.62772" y="39.92588" width="1.3662" height="1.3662" transform="translate(-13.46518 13.54817) rotate(-22.50786)"/><rect class="cls-1" x="26.10473" y="38.66375" width="1.3662" height="1.3662" transform="translate(-13.02187 13.25182) rotate(-22.50786)"/><rect class="cls-4" x="26.74471" y="38.5364" width="0.70087" height="1.3662" transform="translate(-12.94971 13.35977) rotate(-22.50786)"/><rect class="cls-1" x="26.10473" y="38.66375" width="1.3662" height="1.3662" transform="translate(-13.02187 13.25182) rotate(-22.50786)"/><rect class="cls-1" x="25.58173" y="37.40162" width="1.3662" height="1.3662" transform="translate(-12.57855 12.95547) rotate(-22.50786)"/><rect class="cls-4" x="26.22172" y="37.27427" width="0.70087" height="1.3662" transform="matrix(0.92383, -0.38281, 0.38281, 0.92383, -12.50639, 13.06342)"/><rect class="cls-1" x="25.58173" y="37.40162" width="1.3662" height="1.3662" transform="translate(-12.57855 12.95547) rotate(-22.50786)"/><rect class="cls-1" x="25.05874" y="36.13949" width="1.3662" height="1.3662" transform="translate(-12.13523 12.65912) rotate(-22.50786)"/><rect class="cls-4" x="25.69872" y="36.01214" width="0.70087" height="1.3662" transform="translate(-12.06307 12.76707) rotate(-22.50786)"/><rect class="cls-1" x="25.05874" y="36.13949" width="1.3662" height="1.3662" transform="translate(-12.13523 12.65912) rotate(-22.50786)"/><rect class="cls-1" x="24.53574" y="34.87736" width="1.3662" height="1.3662" transform="translate(-11.69191 12.36278) rotate(-22.50786)"/><rect class="cls-4" x="25.17573" y="34.75001" width="0.70087" height="1.3662" transform="translate(-11.61975 12.47072) rotate(-22.50786)"/><rect class="cls-1" x="24.53574" y="34.87736" width="1.3662" height="1.3662" transform="translate(-11.69191 12.36278) rotate(-22.50786)"/><rect class="cls-1" x="24.01275" y="33.61522" width="1.3662" height="1.3662" transform="translate(-11.24859 12.06643) rotate(-22.50786)"/><rect class="cls-4" x="24.65273" y="33.48788" width="0.70087" height="1.3662" transform="translate(-11.17643 12.17437) rotate(-22.50786)"/><rect class="cls-1" x="24.01275" y="33.61522" width="1.3662" height="1.3662" transform="translate(-11.24859 12.06643) rotate(-22.50786)"/><rect class="cls-1" x="23.48975" y="32.35309" width="1.3662" height="1.3662" transform="translate(-10.80527 11.77008) rotate(-22.50786)"/><rect class="cls-4" x="24.12974" y="32.22575" width="0.70087" height="1.3662" transform="translate(-10.73311 11.87803) rotate(-22.50786)"/><rect class="cls-1" x="23.48975" y="32.35309" width="1.3662" height="1.3662" transform="translate(-10.80527 11.77008) rotate(-22.50786)"/><rect class="cls-1" x="22.96676" y="31.09096" width="1.3662" height="1.3662" transform="matrix(0.92383, -0.38281, 0.38281, 0.92383, -10.36195, 11.47373)"/><rect class="cls-4" x="23.60674" y="30.96361" width="0.70087" height="1.3662" transform="matrix(0.92383, -0.38281, 0.38281, 0.92383, -10.28979, 11.58168)"/><rect class="cls-1" x="22.96676" y="31.09096" width="1.3662" height="1.3662" transform="matrix(0.92383, -0.38281, 0.38281, 0.92383, -10.36195, 11.47373)"/><rect class="cls-1" x="28.93584" y="41.92715" width="1.3662" height="1.3662" transform="translate(-14.05547 14.58418) rotate(-22.50786)"/><rect class="cls-4" x="29.57583" y="41.7998" width="0.70087" height="1.3662" transform="translate(-13.98331 14.69213) rotate(-22.50786)"/><rect class="cls-1" x="28.93584" y="41.92715" width="1.3662" height="1.3662" transform="translate(-14.05547 14.58418) rotate(-22.50786)"/><rect class="cls-1" x="28.41285" y="40.66502" width="1.3662" height="1.3662" transform="translate(-13.61216 14.28783) rotate(-22.50786)"/><rect class="cls-4" x="29.05283" y="40.53767" width="0.70087" height="1.3662" transform="translate(-13.54 14.39578) rotate(-22.50786)"/><rect class="cls-1" x="28.41285" y="40.66502" width="1.3662" height="1.3662" transform="translate(-13.61216 14.28783) rotate(-22.50786)"/><rect class="cls-1" x="27.88985" y="39.40289" width="1.3662" height="1.3662" transform="translate(-13.16884 13.99149) rotate(-22.50786)"/><rect class="cls-4" x="28.52984" y="39.27554" width="0.70087" height="1.3662" transform="translate(-13.09668 14.09943) rotate(-22.50786)"/><rect class="cls-1" x="27.88985" y="39.40289" width="1.3662" height="1.3662" transform="translate(-13.16884 13.99149) rotate(-22.50786)"/><rect class="cls-1" x="27.36686" y="38.14075" width="1.3662" height="1.3662" transform="translate(-12.72552 13.69514) rotate(-22.50786)"/><rect class="cls-4" x="28.00684" y="38.01341" width="0.70087" height="1.3662" transform="translate(-12.65336 13.80308) rotate(-22.50786)"/><rect class="cls-1" x="27.36686" y="38.14075" width="1.3662" height="1.3662" transform="translate(-12.72552 13.69514) rotate(-22.50786)"/><rect class="cls-1" x="26.84386" y="36.87862" width="1.3662" height="1.3662" transform="translate(-12.2822 13.39879) rotate(-22.50786)"/><rect class="cls-4" x="27.48385" y="36.75128" width="0.70087" height="1.3662" transform="translate(-12.21004 13.50674) rotate(-22.50786)"/><rect class="cls-1" x="26.84386" y="36.87862" width="1.3662" height="1.3662" transform="translate(-12.2822 13.39879) rotate(-22.50786)"/><rect class="cls-1" x="26.32087" y="35.61649" width="1.3662" height="1.3662" transform="translate(-11.83888 13.10244) rotate(-22.50786)"/><rect class="cls-4" x="26.96085" y="35.48914" width="0.70087" height="1.3662" transform="matrix(0.92383, -0.38281, 0.38281, 0.92383, -11.76672, 13.21039)"/><rect class="cls-1" x="26.32087" y="35.61649" width="1.3662" height="1.3662" transform="translate(-11.83888 13.10244) rotate(-22.50786)"/><rect class="cls-1" x="25.79787" y="34.35436" width="1.3662" height="1.3662" transform="translate(-11.39556 12.80609) rotate(-22.50786)"/><rect class="cls-4" x="26.43786" y="34.22701" width="0.70087" height="1.3662" transform="translate(-11.3234 12.91404) rotate(-22.50786)"/><rect class="cls-1" x="25.79787" y="34.35436" width="1.3662" height="1.3662" transform="translate(-11.39556 12.80609) rotate(-22.50786)"/><rect class="cls-1" x="25.27488" y="33.09223" width="1.3662" height="1.3662" transform="translate(-10.95224 12.50975) rotate(-22.50786)"/><rect class="cls-4" x="25.91487" y="32.96488" width="0.70087" height="1.3662" transform="translate(-10.88008 12.61769) rotate(-22.50786)"/><rect class="cls-1" x="25.27488" y="33.09223" width="1.3662" height="1.3662" transform="translate(-10.95224 12.50975) rotate(-22.50786)"/><rect class="cls-1" x="24.75188" y="31.8301" width="1.3662" height="1.3662" transform="translate(-10.50892 12.2134) rotate(-22.50786)"/><rect class="cls-4" x="25.39187" y="31.70275" width="0.70087" height="1.3662" transform="translate(-10.43677 12.32134) rotate(-22.50786)"/><rect class="cls-1" x="24.75188" y="31.8301" width="1.3662" height="1.3662" transform="translate(-10.50892 12.2134) rotate(-22.50786)"/><rect class="cls-1" x="24.22889" y="30.56797" width="1.3662" height="1.3662" transform="translate(-10.06561 11.91705) rotate(-22.50786)"/><rect class="cls-4" x="24.86888" y="30.44062" width="0.70087" height="1.3662" transform="translate(-9.99345 12.025) rotate(-22.50786)"/><rect class="cls-1" x="24.22889" y="30.56797" width="1.3662" height="1.3662" transform="translate(-10.06561 11.91705) rotate(-22.50786)"/><rect class="cls-1" x="23.70589" y="29.30584" width="1.3662" height="1.3662" transform="translate(-9.62229 11.6207) rotate(-22.50786)"/><rect class="cls-4" x="24.34588" y="29.17849" width="0.70087" height="1.3662" transform="matrix(0.92383, -0.38281, 0.38281, 0.92383, -9.55013, 11.72865)"/><rect class="cls-1" x="23.70589" y="29.30584" width="1.3662" height="1.3662" transform="translate(-9.62229 11.6207) rotate(-22.50786)"/><rect class="cls-1" x="30.19797" y="41.40415" width="1.3662" height="1.3662" transform="translate(-13.75913 15.0275) rotate(-22.50786)"/><rect class="cls-4" x="30.83796" y="41.27681" width="0.70087" height="1.3662" transform="translate(-13.68697 15.13545) rotate(-22.50786)"/><rect class="cls-1" x="30.19797" y="41.40415" width="1.3662" height="1.3662" transform="translate(-13.75913 15.0275) rotate(-22.50786)"/><rect class="cls-1" x="29.67498" y="40.14202" width="1.3662" height="1.3662" transform="translate(-13.31581 14.73115) rotate(-22.50786)"/><rect class="cls-4" x="30.31497" y="40.01468" width="0.70087" height="1.3662" transform="translate(-13.24365 14.8391) rotate(-22.50786)"/><rect class="cls-1" x="29.67498" y="40.14202" width="1.3662" height="1.3662" transform="translate(-13.31581 14.73115) rotate(-22.50786)"/><rect class="cls-1" x="29.15198" y="38.87989" width="1.3662" height="1.3662" transform="translate(-12.87249 14.43481) rotate(-22.50786)"/><rect class="cls-4" x="29.79197" y="38.75254" width="0.70087" height="1.3662" transform="translate(-12.80033 14.54275) rotate(-22.50786)"/><rect class="cls-1" x="29.15198" y="38.87989" width="1.3662" height="1.3662" transform="translate(-12.87249 14.43481) rotate(-22.50786)"/><rect class="cls-1" x="28.62899" y="37.61776" width="1.3662" height="1.3662" transform="translate(-12.42917 14.13846) rotate(-22.50786)"/><rect class="cls-4" x="29.26898" y="37.49041" width="0.70087" height="1.3662" transform="matrix(0.92383, -0.38281, 0.38281, 0.92383, -12.35701, 14.2464)"/><rect class="cls-1" x="28.62899" y="37.61776" width="1.3662" height="1.3662" transform="translate(-12.42917 14.13846) rotate(-22.50786)"/><rect class="cls-1" x="28.10599" y="36.35563" width="1.3662" height="1.3662" transform="translate(-11.98585 13.84211) rotate(-22.50786)"/><rect class="cls-4" x="28.74598" y="36.22828" width="0.70087" height="1.3662" transform="translate(-11.91369 13.95006) rotate(-22.50786)"/><rect class="cls-1" x="28.10599" y="36.35563" width="1.3662" height="1.3662" transform="translate(-11.98585 13.84211) rotate(-22.50786)"/><rect class="cls-1" x="27.583" y="35.0935" width="1.3662" height="1.3662" transform="translate(-11.54253 13.54576) rotate(-22.50786)"/><rect class="cls-4" x="28.22299" y="34.96615" width="0.70087" height="1.3662" transform="translate(-11.47037 13.65371) rotate(-22.50786)"/><rect class="cls-1" x="27.583" y="35.0935" width="1.3662" height="1.3662" transform="translate(-11.54253 13.54576) rotate(-22.50786)"/><rect class="cls-1" x="27.06001" y="33.83137" width="1.3662" height="1.3662" transform="translate(-11.09921 13.24941) rotate(-22.50786)"/><rect class="cls-4" x="27.69999" y="33.70402" width="0.70087" height="1.3662" transform="matrix(0.92383, -0.38281, 0.38281, 0.92383, -11.02705, 13.35736)"/><rect class="cls-1" x="27.06001" y="33.83137" width="1.3662" height="1.3662" transform="translate(-11.09921 13.24941) rotate(-22.50786)"/><rect class="cls-1" x="26.53701" y="32.56923" width="1.3662" height="1.3662" transform="translate(-10.6559 12.95307) rotate(-22.50786)"/><rect class="cls-4" x="27.177" y="32.44189" width="0.70087" height="1.3662" transform="translate(-10.58374 13.06101) rotate(-22.50786)"/><rect class="cls-1" x="26.53701" y="32.56923" width="1.3662" height="1.3662" transform="translate(-10.6559 12.95307) rotate(-22.50786)"/><rect class="cls-1" x="26.01402" y="31.3071" width="1.3662" height="1.3662" transform="translate(-10.21258 12.65672) rotate(-22.50786)"/><rect class="cls-4" x="26.654" y="31.17976" width="0.70087" height="1.3662" transform="translate(-10.14042 12.76466) rotate(-22.50786)"/><rect class="cls-1" x="26.01402" y="31.3071" width="1.3662" height="1.3662" transform="translate(-10.21258 12.65672) rotate(-22.50786)"/><rect class="cls-1" x="25.49102" y="30.04497" width="1.3662" height="1.3662" transform="translate(-9.76926 12.36037) rotate(-22.50786)"/><rect class="cls-4" x="26.13101" y="29.91762" width="0.70087" height="1.3662" transform="translate(-9.6971 12.46832) rotate(-22.50786)"/><rect class="cls-1" x="25.49102" y="30.04497" width="1.3662" height="1.3662" transform="translate(-9.76926 12.36037) rotate(-22.50786)"/><rect class="cls-1" x="24.96803" y="28.78284" width="1.3662" height="1.3662" transform="translate(-9.32594 12.06402) rotate(-22.50786)"/><rect class="cls-4" x="25.60801" y="28.65549" width="0.70087" height="1.3662" transform="translate(-9.25378 12.17197) rotate(-22.50786)"/><rect class="cls-1" x="24.96803" y="28.78284" width="1.3662" height="1.3662" transform="translate(-9.32594 12.06402) rotate(-22.50786)"/><rect class="cls-1" x="30.93711" y="39.61903" width="1.3662" height="1.3662" transform="translate(-13.01946 15.17447) rotate(-22.50786)"/><rect class="cls-4" x="31.5771" y="39.49168" width="0.70087" height="1.3662" transform="translate(-12.9473 15.28242) rotate(-22.50786)"/><rect class="cls-1" x="30.93711" y="39.61903" width="1.3662" height="1.3662" transform="translate(-13.01946 15.17447) rotate(-22.50786)"/><rect class="cls-1" x="30.41412" y="38.3569" width="1.3662" height="1.3662" transform="translate(-12.57614 14.87812) rotate(-22.50786)"/><rect class="cls-4" x="31.0541" y="38.22955" width="0.70087" height="1.3662" transform="translate(-12.50398 14.98607) rotate(-22.50786)"/><rect class="cls-1" x="30.41412" y="38.3569" width="1.3662" height="1.3662" transform="translate(-12.57614 14.87812) rotate(-22.50786)"/><rect class="cls-1" x="29.89112" y="37.09476" width="1.3662" height="1.3662" transform="translate(-12.13282 14.58178) rotate(-22.50786)"/><rect class="cls-4" x="30.53111" y="36.96742" width="0.70087" height="1.3662" transform="translate(-12.06066 14.68972) rotate(-22.50786)"/><rect class="cls-1" x="29.89112" y="37.09476" width="1.3662" height="1.3662" transform="translate(-12.13282 14.58178) rotate(-22.50786)"/><rect class="cls-1" x="29.36813" y="35.83263" width="1.3662" height="1.3662" transform="translate(-11.6895 14.28543) rotate(-22.50786)"/><rect class="cls-4" x="30.00811" y="35.70529" width="0.70087" height="1.3662" transform="translate(-11.61734 14.39337) rotate(-22.50786)"/><rect class="cls-1" x="29.36813" y="35.83263" width="1.3662" height="1.3662" transform="translate(-11.6895 14.28543) rotate(-22.50786)"/><rect class="cls-1" x="28.84513" y="34.5705" width="1.3662" height="1.3662" transform="translate(-11.24618 13.98908) rotate(-22.50786)"/><rect class="cls-4" x="29.48512" y="34.44316" width="0.70087" height="1.3662" transform="translate(-11.17403 14.09703) rotate(-22.50786)"/><rect class="cls-1" x="28.84513" y="34.5705" width="1.3662" height="1.3662" transform="translate(-11.24618 13.98908) rotate(-22.50786)"/><rect class="cls-1" x="28.32214" y="33.30837" width="1.3662" height="1.3662" transform="translate(-10.80287 13.69273) rotate(-22.50786)"/><rect class="cls-4" x="28.96212" y="33.18102" width="0.70087" height="1.3662" transform="translate(-10.73071 13.80068) rotate(-22.50786)"/><rect class="cls-1" x="28.32214" y="33.30837" width="1.3662" height="1.3662" transform="translate(-10.80287 13.69273) rotate(-22.50786)"/><rect class="cls-1" x="27.79914" y="32.04624" width="1.3662" height="1.3662" transform="translate(-10.35955 13.39638) rotate(-22.50786)"/><rect class="cls-4" x="28.43913" y="31.91889" width="0.70087" height="1.3662" transform="translate(-10.28739 13.50433) rotate(-22.50786)"/><rect class="cls-1" x="27.79914" y="32.04624" width="1.3662" height="1.3662" transform="translate(-10.35955 13.39638) rotate(-22.50786)"/><rect class="cls-1" x="27.27615" y="30.78411" width="1.3662" height="1.3662" transform="translate(-9.91623 13.10004) rotate(-22.50786)"/><rect class="cls-4" x="27.91613" y="30.65676" width="0.70087" height="1.3662" transform="matrix(0.92383, -0.38281, 0.38281, 0.92383, -9.84407, 13.20798)"/><rect class="cls-1" x="27.27615" y="30.78411" width="1.3662" height="1.3662" transform="translate(-9.91623 13.10004) rotate(-22.50786)"/><rect class="cls-1" x="26.75315" y="29.52198" width="1.3662" height="1.3662" transform="translate(-9.47291 12.80369) rotate(-22.50786)"/><rect class="cls-4" x="27.39314" y="29.39463" width="0.70087" height="1.3662" transform="translate(-9.40075 12.91163) rotate(-22.50786)"/><rect class="cls-1" x="26.75315" y="29.52198" width="1.3662" height="1.3662" transform="translate(-9.47291 12.80369) rotate(-22.50786)"/><rect class="cls-1" x="26.23016" y="28.25985" width="1.3662" height="1.3662" transform="translate(-9.02959 12.50734) rotate(-22.50786)"/><rect class="cls-4" x="26.87014" y="28.1325" width="0.70087" height="1.3662" transform="translate(-8.95743 12.61529) rotate(-22.50786)"/><rect class="cls-1" x="26.23016" y="28.25985" width="1.3662" height="1.3662" transform="translate(-9.02959 12.50734) rotate(-22.50786)"/><rect class="cls-1" x="25.70716" y="26.99771" width="1.3662" height="1.3662" transform="translate(-8.58627 12.21099) rotate(-22.50786)"/><rect class="cls-4" x="26.34715" y="26.87037" width="0.70087" height="1.3662" transform="translate(-8.51411 12.31894) rotate(-22.50786)"/><rect class="cls-1" x="25.70716" y="26.99771" width="1.3662" height="1.3662" transform="translate(-8.58627 12.21099) rotate(-22.50786)"/><rect class="cls-1" x="32.19924" y="39.09603" width="1.3662" height="1.3662" transform="translate(-12.72311 15.61779) rotate(-22.50786)"/><rect class="cls-4" x="32.83923" y="38.96869" width="0.70087" height="1.3662" transform="translate(-12.65095 15.72574) rotate(-22.50786)"/><rect class="cls-1" x="32.19924" y="39.09603" width="1.3662" height="1.3662" transform="translate(-12.72311 15.61779) rotate(-22.50786)"/><rect class="cls-1" x="31.67625" y="37.8339" width="1.3662" height="1.3662" transform="matrix(0.92383, -0.38281, 0.38281, 0.92383, -12.27979, 15.32144)"/><rect class="cls-4" x="32.31623" y="37.70655" width="0.70087" height="1.3662" transform="translate(-12.20763 15.42939) rotate(-22.50786)"/><rect class="cls-1" x="31.67625" y="37.8339" width="1.3662" height="1.3662" transform="matrix(0.92383, -0.38281, 0.38281, 0.92383, -12.27979, 15.32144)"/><rect class="cls-1" x="31.15325" y="36.57177" width="1.3662" height="1.3662" transform="translate(-11.83647 15.02509) rotate(-22.50786)"/><rect class="cls-4" x="31.79324" y="36.44442" width="0.70087" height="1.3662" transform="translate(-11.76431 15.13304) rotate(-22.50786)"/><rect class="cls-1" x="31.15325" y="36.57177" width="1.3662" height="1.3662" transform="translate(-11.83647 15.02509) rotate(-22.50786)"/><rect class="cls-1" x="30.63026" y="35.30964" width="1.3662" height="1.3662" transform="translate(-11.39316 14.72875) rotate(-22.50786)"/><rect class="cls-4" x="31.27024" y="35.18229" width="0.70087" height="1.3662" transform="translate(-11.321 14.83669) rotate(-22.50786)"/><rect class="cls-1" x="30.63026" y="35.30964" width="1.3662" height="1.3662" transform="translate(-11.39316 14.72875) rotate(-22.50786)"/><rect class="cls-1" x="30.10726" y="34.04751" width="1.3662" height="1.3662" transform="translate(-10.94984 14.4324) rotate(-22.50786)"/><rect class="cls-4" x="30.74725" y="33.92016" width="0.70087" height="1.3662" transform="matrix(0.92383, -0.38281, 0.38281, 0.92383, -10.87768, 14.54034)"/><rect class="cls-1" x="30.10726" y="34.04751" width="1.3662" height="1.3662" transform="translate(-10.94984 14.4324) rotate(-22.50786)"/><rect class="cls-1" x="29.58427" y="32.78538" width="1.3662" height="1.3662" transform="translate(-10.50652 14.13605) rotate(-22.50786)"/><rect class="cls-4" x="30.22425" y="32.65803" width="0.70087" height="1.3662" transform="translate(-10.43436 14.244) rotate(-22.50786)"/><rect class="cls-1" x="29.58427" y="32.78538" width="1.3662" height="1.3662" transform="translate(-10.50652 14.13605) rotate(-22.50786)"/><rect class="cls-1" x="29.06127" y="31.52324" width="1.3662" height="1.3662" transform="translate(-10.0632 13.8397) rotate(-22.50786)"/><rect class="cls-4" x="29.70126" y="31.3959" width="0.70087" height="1.3662" transform="translate(-9.99104 13.94765) rotate(-22.50786)"/><rect class="cls-1" x="29.06127" y="31.52324" width="1.3662" height="1.3662" transform="translate(-10.0632 13.8397) rotate(-22.50786)"/><rect class="cls-1" x="28.53828" y="30.26111" width="1.3662" height="1.3662" transform="translate(-9.61988 13.54335) rotate(-22.50786)"/><rect class="cls-4" x="29.17826" y="30.13377" width="0.70087" height="1.3662" transform="translate(-9.54772 13.6513) rotate(-22.50786)"/><rect class="cls-1" x="28.53828" y="30.26111" width="1.3662" height="1.3662" transform="translate(-9.61988 13.54335) rotate(-22.50786)"/><rect class="cls-1" x="28.01528" y="28.99898" width="1.3662" height="1.3662" transform="translate(-9.17656 13.24701) rotate(-22.50786)"/><rect class="cls-4" x="28.65527" y="28.87164" width="0.70087" height="1.3662" transform="translate(-9.1044 13.35495) rotate(-22.50786)"/><rect class="cls-1" x="28.01528" y="28.99898" width="1.3662" height="1.3662" transform="translate(-9.17656 13.24701) rotate(-22.50786)"/><rect class="cls-1" x="27.49229" y="27.73685" width="1.3662" height="1.3662" transform="translate(-8.73324 12.95066) rotate(-22.50786)"/><rect class="cls-4" x="28.13227" y="27.6095" width="0.70087" height="1.3662" transform="translate(-8.66108 13.0586) rotate(-22.50786)"/><rect class="cls-1" x="27.49229" y="27.73685" width="1.3662" height="1.3662" transform="translate(-8.73324 12.95066) rotate(-22.50786)"/><rect class="cls-1" x="26.96929" y="26.47472" width="1.3662" height="1.3662" transform="translate(-8.28992 12.65431) rotate(-22.50786)"/><rect class="cls-4" x="27.60928" y="26.34737" width="0.70087" height="1.3662" transform="translate(-8.21777 12.76226) rotate(-22.50786)"/><rect class="cls-1" x="26.96929" y="26.47472" width="1.3662" height="1.3662" transform="translate(-8.28992 12.65431) rotate(-22.50786)"/><rect class="cls-1" x="32.93838" y="37.31091" width="1.3662" height="1.3662" transform="translate(-11.98344 15.76476) rotate(-22.50786)"/><rect class="cls-4" x="33.57836" y="37.18356" width="0.70087" height="1.3662" transform="translate(-11.91129 15.87271) rotate(-22.50786)"/><rect class="cls-1" x="32.93838" y="37.31091" width="1.3662" height="1.3662" transform="translate(-11.98344 15.76476) rotate(-22.50786)"/><rect class="cls-1" x="32.41538" y="36.04877" width="1.3662" height="1.3662" transform="translate(-11.54013 15.46841) rotate(-22.50786)"/><rect class="cls-4" x="33.05537" y="35.92143" width="0.70087" height="1.3662" transform="translate(-11.46797 15.57636) rotate(-22.50786)"/><rect class="cls-1" x="32.41538" y="36.04877" width="1.3662" height="1.3662" transform="translate(-11.54013 15.46841) rotate(-22.50786)"/><rect class="cls-1" x="31.89239" y="34.78664" width="1.3662" height="1.3662" transform="translate(-11.09681 15.17207) rotate(-22.50786)"/><rect class="cls-4" x="32.53237" y="34.6593" width="0.70087" height="1.3662" transform="translate(-11.02465 15.28001) rotate(-22.50786)"/><rect class="cls-1" x="31.89239" y="34.78664" width="1.3662" height="1.3662" transform="translate(-11.09681 15.17207) rotate(-22.50786)"/><rect class="cls-1" x="31.36939" y="33.52451" width="1.3662" height="1.3662" transform="translate(-10.65349 14.87572) rotate(-22.50786)"/><rect class="cls-4" x="32.00938" y="33.39717" width="0.70087" height="1.3662" transform="translate(-10.58133 14.98366) rotate(-22.50786)"/><rect class="cls-1" x="31.36939" y="33.52451" width="1.3662" height="1.3662" transform="translate(-10.65349 14.87572) rotate(-22.50786)"/><rect class="cls-1" x="30.8464" y="32.26238" width="1.3662" height="1.3662" transform="translate(-10.21017 14.57937) rotate(-22.50786)"/><rect class="cls-4" x="31.48639" y="32.13503" width="0.70087" height="1.3662" transform="translate(-10.13801 14.68732) rotate(-22.50786)"/><rect class="cls-1" x="30.8464" y="32.26238" width="1.3662" height="1.3662" transform="translate(-10.21017 14.57937) rotate(-22.50786)"/><rect class="cls-1" x="30.3234" y="31.00025" width="1.3662" height="1.3662" transform="translate(-9.76685 14.28302) rotate(-22.50786)"/><rect class="cls-4" x="30.96339" y="30.8729" width="0.70087" height="1.3662" transform="translate(-9.69469 14.39097) rotate(-22.50786)"/><rect class="cls-1" x="30.3234" y="31.00025" width="1.3662" height="1.3662" transform="translate(-9.76685 14.28302) rotate(-22.50786)"/><rect class="cls-1" x="29.80041" y="29.73812" width="1.3662" height="1.3662" transform="translate(-9.32353 13.98667) rotate(-22.50786)"/><rect class="cls-4" x="30.4404" y="29.61077" width="0.70087" height="1.3662" transform="translate(-9.25137 14.09462) rotate(-22.50786)"/><rect class="cls-1" x="29.80041" y="29.73812" width="1.3662" height="1.3662" transform="translate(-9.32353 13.98667) rotate(-22.50786)"/><rect class="cls-1" x="29.27741" y="28.47599" width="1.3662" height="1.3662" transform="translate(-8.88021 13.69033) rotate(-22.50786)"/><rect class="cls-4" x="29.9174" y="28.34864" width="0.70087" height="1.3662" transform="translate(-8.80805 13.79827) rotate(-22.50786)"/><rect class="cls-1" x="29.27741" y="28.47599" width="1.3662" height="1.3662" transform="translate(-8.88021 13.69033) rotate(-22.50786)"/><rect class="cls-1" x="28.75442" y="27.21386" width="1.3662" height="1.3662" transform="translate(-8.4369 13.39398) rotate(-22.50786)"/><rect class="cls-4" x="29.39441" y="27.08651" width="0.70087" height="1.3662" transform="translate(-8.36474 13.50192) rotate(-22.50786)"/><rect class="cls-1" x="28.75442" y="27.21386" width="1.3662" height="1.3662" transform="translate(-8.4369 13.39398) rotate(-22.50786)"/><rect class="cls-1" x="28.23143" y="25.95172" width="1.3662" height="1.3662" transform="translate(-7.99358 13.09763) rotate(-22.50786)"/><rect class="cls-4" x="28.87141" y="25.82438" width="0.70087" height="1.3662" transform="translate(-7.92142 13.20557) rotate(-22.50786)"/><rect class="cls-1" x="28.23143" y="25.95172" width="1.3662" height="1.3662" transform="translate(-7.99358 13.09763) rotate(-22.50786)"/><rect class="cls-1" x="27.70843" y="24.68959" width="1.3662" height="1.3662" transform="translate(-7.55026 12.80128) rotate(-22.50786)"/><rect class="cls-4" x="28.34842" y="24.56225" width="0.70087" height="1.3662" transform="translate(-7.4781 12.90923) rotate(-22.50786)"/><rect class="cls-1" x="27.70843" y="24.68959" width="1.3662" height="1.3662" transform="translate(-7.55026 12.80128) rotate(-22.50786)"/><rect class="cls-1" x="34.20051" y="36.78791" width="1.3662" height="1.3662" transform="translate(-11.6871 16.20808) rotate(-22.50786)"/><rect class="cls-4" x="34.8405" y="36.66056" width="0.70087" height="1.3662" transform="matrix(0.92383, -0.38281, 0.38281, 0.92383, -11.61494, 16.31603)"/><rect class="cls-1" x="34.20051" y="36.78791" width="1.3662" height="1.3662" transform="translate(-11.6871 16.20808) rotate(-22.50786)"/><rect class="cls-1" x="33.67751" y="35.52578" width="1.3662" height="1.3662" transform="translate(-11.24378 15.91173) rotate(-22.50786)"/><rect class="cls-4" x="34.3175" y="35.39843" width="0.70087" height="1.3662" transform="translate(-11.17162 16.01968) rotate(-22.50786)"/><rect class="cls-1" x="33.67751" y="35.52578" width="1.3662" height="1.3662" transform="translate(-11.24378 15.91173) rotate(-22.50786)"/><rect class="cls-1" x="33.15452" y="34.26365" width="1.3662" height="1.3662" transform="translate(-10.80046 15.61538) rotate(-22.50786)"/><rect class="cls-4" x="33.79451" y="34.1363" width="0.70087" height="1.3662" transform="translate(-10.7283 15.72333) rotate(-22.50786)"/><rect class="cls-1" x="33.15452" y="34.26365" width="1.3662" height="1.3662" transform="translate(-10.80046 15.61538) rotate(-22.50786)"/><rect class="cls-1" x="32.63153" y="33.00152" width="1.3662" height="1.3662" transform="translate(-10.35714 15.31904) rotate(-22.50786)"/><rect class="cls-4" x="33.27151" y="32.87417" width="0.70087" height="1.3662" transform="translate(-10.28498 15.42698) rotate(-22.50786)"/><rect class="cls-1" x="32.63153" y="33.00152" width="1.3662" height="1.3662" transform="translate(-10.35714 15.31904) rotate(-22.50786)"/><rect class="cls-1" x="32.10853" y="31.73939" width="1.3662" height="1.3662" transform="translate(-9.91382 15.02269) rotate(-22.50786)"/><rect class="cls-4" x="32.74852" y="31.61204" width="0.70087" height="1.3662" transform="translate(-9.84166 15.13063) rotate(-22.50786)"/><rect class="cls-1" x="32.10853" y="31.73939" width="1.3662" height="1.3662" transform="translate(-9.91382 15.02269) rotate(-22.50786)"/><rect class="cls-1" x="31.58554" y="30.47725" width="1.3662" height="1.3662" transform="translate(-9.4705 14.72634) rotate(-22.50786)"/><rect class="cls-4" x="32.22552" y="30.34991" width="0.70087" height="1.3662" transform="translate(-9.39834 14.83429) rotate(-22.50786)"/><rect class="cls-1" x="31.58554" y="30.47725" width="1.3662" height="1.3662" transform="translate(-9.4705 14.72634) rotate(-22.50786)"/><rect class="cls-1" x="31.06254" y="29.21512" width="1.3662" height="1.3662" transform="translate(-9.02718 14.42999) rotate(-22.50786)"/><rect class="cls-4" x="31.70253" y="29.08778" width="0.70087" height="1.3662" transform="matrix(0.92383, -0.38281, 0.38281, 0.92383, -8.95503, 14.53794)"/><rect class="cls-1" x="31.06254" y="29.21512" width="1.3662" height="1.3662" transform="translate(-9.02718 14.42999) rotate(-22.50786)"/><rect class="cls-1" x="30.53955" y="27.95299" width="1.3662" height="1.3662" transform="translate(-8.58387 14.13364) rotate(-22.50786)"/><rect class="cls-4" x="31.17953" y="27.82565" width="0.70087" height="1.3662" transform="matrix(0.92383, -0.38281, 0.38281, 0.92383, -8.51171, 14.24159)"/><rect class="cls-1" x="30.53955" y="27.95299" width="1.3662" height="1.3662" transform="translate(-8.58387 14.13364) rotate(-22.50786)"/><rect class="cls-1" x="30.01655" y="26.69086" width="1.3662" height="1.3662" transform="translate(-8.14055 13.8373) rotate(-22.50786)"/><rect class="cls-4" x="30.65654" y="26.56351" width="0.70087" height="1.3662" transform="translate(-8.06839 13.94524) rotate(-22.50786)"/><rect class="cls-1" x="30.01655" y="26.69086" width="1.3662" height="1.3662" transform="translate(-8.14055 13.8373) rotate(-22.50786)"/><rect class="cls-1" x="29.49356" y="25.42873" width="1.3662" height="1.3662" transform="translate(-7.69723 13.54095) rotate(-22.50786)"/><rect class="cls-4" x="30.13354" y="25.30138" width="0.70087" height="1.3662" transform="matrix(0.92383, -0.38281, 0.38281, 0.92383, -7.62507, 13.64889)"/><rect class="cls-1" x="29.49356" y="25.42873" width="1.3662" height="1.3662" transform="translate(-7.69723 13.54095) rotate(-22.50786)"/><rect class="cls-1" x="28.97056" y="24.1666" width="1.3662" height="1.3662" transform="translate(-7.25391 13.2446) rotate(-22.50786)"/><rect class="cls-4" x="29.61055" y="24.03925" width="0.70087" height="1.3662" transform="matrix(0.92383, -0.38281, 0.38281, 0.92383, -7.18175, 13.35255)"/><rect class="cls-1" x="28.97056" y="24.1666" width="1.3662" height="1.3662" transform="translate(-7.25391 13.2446) rotate(-22.50786)"/><rect class="cls-1" x="34.93965" y="35.00279" width="1.3662" height="1.3662" transform="translate(-10.94743 16.35505) rotate(-22.50786)"/><rect class="cls-4" x="35.57963" y="34.87544" width="0.70087" height="1.3662" transform="matrix(0.92383, -0.38281, 0.38281, 0.92383, -10.87527, 16.463)"/><rect class="cls-1" x="34.93965" y="35.00279" width="1.3662" height="1.3662" transform="translate(-10.94743 16.35505) rotate(-22.50786)"/><rect class="cls-1" x="34.41665" y="33.74065" width="1.3662" height="1.3662" transform="translate(-10.50411 16.0587) rotate(-22.50786)"/><rect class="cls-4" x="35.05664" y="33.61331" width="0.70087" height="1.3662" transform="translate(-10.43195 16.16665) rotate(-22.50786)"/><rect class="cls-1" x="34.41665" y="33.74065" width="1.3662" height="1.3662" transform="translate(-10.50411 16.0587) rotate(-22.50786)"/><rect class="cls-1" x="33.89366" y="32.47852" width="1.3662" height="1.3662" transform="translate(-10.06079 15.76235) rotate(-22.50786)"/><rect class="cls-4" x="34.53364" y="32.35118" width="0.70087" height="1.3662" transform="translate(-9.98863 15.8703) rotate(-22.50786)"/><rect class="cls-1" x="33.89366" y="32.47852" width="1.3662" height="1.3662" transform="translate(-10.06079 15.76235) rotate(-22.50786)"/><rect class="cls-1" x="33.37066" y="31.21639" width="1.3662" height="1.3662" transform="translate(-9.61747 15.46601) rotate(-22.50786)"/><rect class="cls-4" x="34.01065" y="31.08904" width="0.70087" height="1.3662" transform="translate(-9.54531 15.57395) rotate(-22.50786)"/><rect class="cls-1" x="33.37066" y="31.21639" width="1.3662" height="1.3662" transform="translate(-9.61747 15.46601) rotate(-22.50786)"/><rect class="cls-1" x="32.84767" y="29.95426" width="1.3662" height="1.3662" transform="translate(-9.17416 15.16966) rotate(-22.50786)"/><rect class="cls-4" x="33.48765" y="29.82691" width="0.70087" height="1.3662" transform="translate(-9.102 15.2776) rotate(-22.50786)"/><rect class="cls-1" x="32.84767" y="29.95426" width="1.3662" height="1.3662" transform="translate(-9.17416 15.16966) rotate(-22.50786)"/><rect class="cls-1" x="32.32467" y="28.69213" width="1.3662" height="1.3662" transform="translate(-8.73084 14.87331) rotate(-22.50786)"/><rect class="cls-4" x="32.96466" y="28.56478" width="0.70087" height="1.3662" transform="translate(-8.65868 14.98126) rotate(-22.50786)"/><rect class="cls-1" x="32.32467" y="28.69213" width="1.3662" height="1.3662" transform="translate(-8.73084 14.87331) rotate(-22.50786)"/><rect class="cls-1" x="31.80168" y="27.43" width="1.3662" height="1.3662" transform="translate(-8.28752 14.57696) rotate(-22.50786)"/><rect class="cls-4" x="32.44166" y="27.30265" width="0.70087" height="1.3662" transform="matrix(0.92383, -0.38281, 0.38281, 0.92383, -8.21536, 14.68491)"/><rect class="cls-1" x="31.80168" y="27.43" width="1.3662" height="1.3662" transform="translate(-8.28752 14.57696) rotate(-22.50786)"/><rect class="cls-1" x="31.27868" y="26.16787" width="1.3662" height="1.3662" transform="translate(-7.8442 14.28061) rotate(-22.50786)"/><rect class="cls-4" x="31.91867" y="26.04052" width="0.70087" height="1.3662" transform="matrix(0.92383, -0.38281, 0.38281, 0.92383, -7.77204, 14.38856)"/><rect class="cls-1" x="31.27868" y="26.16787" width="1.3662" height="1.3662" transform="translate(-7.8442 14.28061) rotate(-22.50786)"/><rect class="cls-1" x="30.75569" y="24.90573" width="1.3662" height="1.3662" transform="translate(-7.40088 13.98427) rotate(-22.50786)"/><rect class="cls-4" x="31.39567" y="24.77839" width="0.70087" height="1.3662" transform="translate(-7.32872 14.09221) rotate(-22.50786)"/><rect class="cls-1" x="30.75569" y="24.90573" width="1.3662" height="1.3662" transform="translate(-7.40088 13.98427) rotate(-22.50786)"/><rect class="cls-1" x="30.23269" y="23.6436" width="1.3662" height="1.3662" transform="translate(-6.95756 13.68792) rotate(-22.50786)"/><rect class="cls-4" x="30.87268" y="23.51626" width="0.70087" height="1.3662" transform="translate(-6.8854 13.79586) rotate(-22.50786)"/><rect class="cls-1" x="30.23269" y="23.6436" width="1.3662" height="1.3662" transform="translate(-6.95756 13.68792) rotate(-22.50786)"/><rect class="cls-1" x="29.7097" y="22.38147" width="1.3662" height="1.3662" transform="translate(-6.51424 13.39157) rotate(-22.50786)"/><rect class="cls-4" x="30.34968" y="22.25413" width="0.70087" height="1.3662" transform="translate(-6.44208 13.49952) rotate(-22.50786)"/><rect class="cls-1" x="29.7097" y="22.38147" width="1.3662" height="1.3662" transform="translate(-6.51424 13.39157) rotate(-22.50786)"/><rect class="cls-1" x="36.20178" y="34.47979" width="1.3662" height="1.3662" transform="translate(-10.65108 16.79837) rotate(-22.50786)"/><rect class="cls-4" x="36.84176" y="34.35244" width="0.70087" height="1.3662" transform="translate(-10.57892 16.90632) rotate(-22.50786)"/><rect class="cls-1" x="36.20178" y="34.47979" width="1.3662" height="1.3662" transform="translate(-10.65108 16.79837) rotate(-22.50786)"/><rect class="cls-1" x="35.67878" y="33.21766" width="1.3662" height="1.3662" transform="translate(-10.20776 16.50202) rotate(-22.50786)"/><rect class="cls-4" x="36.31877" y="33.09031" width="0.70087" height="1.3662" transform="translate(-10.1356 16.60997) rotate(-22.50786)"/><rect class="cls-1" x="35.67878" y="33.21766" width="1.3662" height="1.3662" transform="translate(-10.20776 16.50202) rotate(-22.50786)"/><rect class="cls-1" x="35.15579" y="31.95553" width="1.3662" height="1.3662" transform="translate(-9.76444 16.20567) rotate(-22.50786)"/><rect class="cls-4" x="35.79577" y="31.82818" width="0.70087" height="1.3662" transform="matrix(0.92383, -0.38281, 0.38281, 0.92383, -9.69228, 16.31362)"/><rect class="cls-1" x="35.15579" y="31.95553" width="1.3662" height="1.3662" transform="translate(-9.76444 16.20567) rotate(-22.50786)"/><rect class="cls-1" x="34.63279" y="30.6934" width="1.3662" height="1.3662" transform="translate(-9.32113 15.90933) rotate(-22.50786)"/><rect class="cls-4" x="35.27278" y="30.56605" width="0.70087" height="1.3662" transform="translate(-9.24897 16.01727) rotate(-22.50786)"/><rect class="cls-1" x="34.63279" y="30.6934" width="1.3662" height="1.3662" transform="translate(-9.32113 15.90933) rotate(-22.50786)"/><rect class="cls-1" x="34.1098" y="29.43127" width="1.3662" height="1.3662" transform="translate(-8.87781 15.61298) rotate(-22.50786)"/><rect class="cls-4" x="34.74978" y="29.30392" width="0.70087" height="1.3662" transform="translate(-8.80565 15.72092) rotate(-22.50786)"/><rect class="cls-1" x="34.1098" y="29.43127" width="1.3662" height="1.3662" transform="translate(-8.87781 15.61298) rotate(-22.50786)"/><rect class="cls-1" x="33.5868" y="28.16913" width="1.3662" height="1.3662" transform="translate(-8.43449 15.31663) rotate(-22.50786)"/><rect class="cls-4" x="34.22679" y="28.04179" width="0.70087" height="1.3662" transform="translate(-8.36233 15.42458) rotate(-22.50786)"/><rect class="cls-1" x="33.5868" y="28.16913" width="1.3662" height="1.3662" transform="translate(-8.43449 15.31663) rotate(-22.50786)"/><rect class="cls-1" x="33.06381" y="26.907" width="1.3662" height="1.3662" transform="translate(-7.99117 15.02028) rotate(-22.50786)"/><rect class="cls-4" x="33.70379" y="26.77966" width="0.70087" height="1.3662" transform="translate(-7.91901 15.12823) rotate(-22.50786)"/><rect class="cls-1" x="33.06381" y="26.907" width="1.3662" height="1.3662" transform="translate(-7.99117 15.02028) rotate(-22.50786)"/><rect class="cls-1" x="32.54081" y="25.64487" width="1.3662" height="1.3662" transform="translate(-7.54785 14.72393) rotate(-22.50786)"/><rect class="cls-4" x="33.1808" y="25.51752" width="0.70087" height="1.3662" transform="translate(-7.47569 14.83188) rotate(-22.50786)"/><rect class="cls-1" x="32.54081" y="25.64487" width="1.3662" height="1.3662" transform="translate(-7.54785 14.72393) rotate(-22.50786)"/><rect class="cls-1" x="32.01782" y="24.38274" width="1.3662" height="1.3662" transform="translate(-7.10453 14.42758) rotate(-22.50786)"/><rect class="cls-4" x="32.65781" y="24.25539" width="0.70087" height="1.3662" transform="matrix(0.92383, -0.38281, 0.38281, 0.92383, -7.03237, 14.53553)"/><rect class="cls-1" x="32.01782" y="24.38274" width="1.3662" height="1.3662" transform="translate(-7.10453 14.42758) rotate(-22.50786)"/><rect class="cls-1" x="31.49482" y="23.12061" width="1.3662" height="1.3662" transform="translate(-6.66121 14.13124) rotate(-22.50786)"/><rect class="cls-4" x="32.13481" y="22.99326" width="0.70087" height="1.3662" transform="translate(-6.58905 14.23918) rotate(-22.50786)"/><rect class="cls-1" x="31.49482" y="23.12061" width="1.3662" height="1.3662" transform="translate(-6.66121 14.13124) rotate(-22.50786)"/><rect class="cls-1" x="30.97183" y="21.85848" width="1.3662" height="1.3662" transform="translate(-6.2179 13.83489) rotate(-22.50786)"/><rect class="cls-4" x="31.61182" y="21.73113" width="0.70087" height="1.3662" transform="translate(-6.14574 13.94283) rotate(-22.50786)"/><rect class="cls-1" x="30.97183" y="21.85848" width="1.3662" height="1.3662" transform="translate(-6.2179 13.83489) rotate(-22.50786)"/><rect class="cls-1" x="36.94091" y="32.69466" width="1.3662" height="1.3662" transform="translate(-9.91141 16.94534) rotate(-22.50786)"/><rect class="cls-4" x="37.5809" y="32.56732" width="0.70087" height="1.3662" transform="translate(-9.83926 17.05329) rotate(-22.50786)"/><rect class="cls-1" x="36.94091" y="32.69466" width="1.3662" height="1.3662" transform="translate(-9.91141 16.94534) rotate(-22.50786)"/><rect class="cls-1" x="36.41792" y="31.43253" width="1.3662" height="1.3662" transform="translate(-9.4681 16.64899) rotate(-22.50786)"/><rect class="cls-4" x="37.05791" y="31.30519" width="0.70087" height="1.3662" transform="translate(-9.39594 16.75694) rotate(-22.50786)"/><rect class="cls-1" x="36.41792" y="31.43253" width="1.3662" height="1.3662" transform="translate(-9.4681 16.64899) rotate(-22.50786)"/><rect class="cls-1" x="35.89492" y="30.1704" width="1.3662" height="1.3662" transform="translate(-9.02478 16.35264) rotate(-22.50786)"/><rect class="cls-4" x="36.53491" y="30.04306" width="0.70087" height="1.3662" transform="matrix(0.92383, -0.38281, 0.38281, 0.92383, -8.95262, 16.46059)"/><rect class="cls-1" x="35.89492" y="30.1704" width="1.3662" height="1.3662" transform="translate(-9.02478 16.35264) rotate(-22.50786)"/><rect class="cls-1" x="35.37193" y="28.90827" width="1.3662" height="1.3662" transform="matrix(0.92383, -0.38281, 0.38281, 0.92383, -8.58146, 16.0563)"/><rect class="cls-4" x="36.01192" y="28.78092" width="0.70087" height="1.3662" transform="matrix(0.92383, -0.38281, 0.38281, 0.92383, -8.5093, 16.16424)"/><rect class="cls-1" x="35.37193" y="28.90827" width="1.3662" height="1.3662" transform="matrix(0.92383, -0.38281, 0.38281, 0.92383, -8.58146, 16.0563)"/><rect class="cls-1" x="34.84893" y="27.64614" width="1.3662" height="1.3662" transform="translate(-8.13814 15.75995) rotate(-22.50786)"/><rect class="cls-4" x="35.48892" y="27.51879" width="0.70087" height="1.3662" transform="translate(-8.06598 15.86789) rotate(-22.50786)"/><rect class="cls-1" x="34.84893" y="27.64614" width="1.3662" height="1.3662" transform="translate(-8.13814 15.75995) rotate(-22.50786)"/><rect class="cls-1" x="34.32594" y="26.38401" width="1.3662" height="1.3662" transform="translate(-7.69482 15.4636) rotate(-22.50786)"/><rect class="cls-4" x="34.96593" y="26.25666" width="0.70087" height="1.3662" transform="translate(-7.62266 15.57155) rotate(-22.50786)"/><rect class="cls-1" x="34.32594" y="26.38401" width="1.3662" height="1.3662" transform="translate(-7.69482 15.4636) rotate(-22.50786)"/><rect class="cls-1" x="33.80295" y="25.12188" width="1.3662" height="1.3662" transform="translate(-7.2515 15.16725) rotate(-22.50786)"/><rect class="cls-4" x="34.44293" y="24.99453" width="0.70087" height="1.3662" transform="translate(-7.17934 15.2752) rotate(-22.50786)"/><rect class="cls-1" x="33.80295" y="25.12188" width="1.3662" height="1.3662" transform="translate(-7.2515 15.16725) rotate(-22.50786)"/><rect class="cls-1" x="33.27995" y="23.85975" width="1.3662" height="1.3662" transform="translate(-6.80818 14.8709) rotate(-22.50786)"/><rect class="cls-4" x="33.91994" y="23.7324" width="0.70087" height="1.3662" transform="translate(-6.73602 14.97885) rotate(-22.50786)"/><rect class="cls-1" x="33.27995" y="23.85975" width="1.3662" height="1.3662" transform="translate(-6.80818 14.8709) rotate(-22.50786)"/><rect class="cls-1" x="32.75696" y="22.59761" width="1.3662" height="1.3662" transform="matrix(0.92383, -0.38281, 0.38281, 0.92383, -6.36487, 14.57456)"/><rect class="cls-4" x="33.39694" y="22.47027" width="0.70087" height="1.3662" transform="translate(-6.29271 14.6825) rotate(-22.50786)"/><rect class="cls-1" x="32.75696" y="22.59761" width="1.3662" height="1.3662" transform="matrix(0.92383, -0.38281, 0.38281, 0.92383, -6.36487, 14.57456)"/><rect class="cls-1" x="32.23396" y="21.33548" width="1.3662" height="1.3662" transform="translate(-5.92155 14.27821) rotate(-22.50786)"/><rect class="cls-4" x="32.87395" y="21.20814" width="0.70087" height="1.3662" transform="translate(-5.84939 14.38615) rotate(-22.50786)"/><rect class="cls-1" x="32.23396" y="21.33548" width="1.3662" height="1.3662" transform="translate(-5.92155 14.27821) rotate(-22.50786)"/><rect class="cls-1" x="31.71097" y="20.07335" width="1.3662" height="1.3662" transform="translate(-5.47823 13.98186) rotate(-22.50786)"/><rect class="cls-4" x="32.35095" y="19.946" width="0.70087" height="1.3662" transform="translate(-5.40607 14.08981) rotate(-22.50786)"/><rect class="cls-1" x="31.71097" y="20.07335" width="1.3662" height="1.3662" transform="translate(-5.47823 13.98186) rotate(-22.50786)"/><rect class="cls-1" x="38.20305" y="32.17167" width="1.3662" height="1.3662" transform="translate(-9.61507 17.38866) rotate(-22.50786)"/><rect class="cls-4" x="38.84303" y="32.04432" width="0.70087" height="1.3662" transform="translate(-9.54291 17.4966) rotate(-22.50786)"/><rect class="cls-1" x="38.20305" y="32.17167" width="1.3662" height="1.3662" transform="translate(-9.61507 17.38866) rotate(-22.50786)"/><rect class="cls-1" x="37.68005" y="30.90954" width="1.3662" height="1.3662" transform="translate(-9.17175 17.09231) rotate(-22.50786)"/><rect class="cls-4" x="38.32004" y="30.78219" width="0.70087" height="1.3662" transform="translate(-9.09959 17.20026) rotate(-22.50786)"/><rect class="cls-1" x="37.68005" y="30.90954" width="1.3662" height="1.3662" transform="translate(-9.17175 17.09231) rotate(-22.50786)"/><rect class="cls-1" x="37.15706" y="29.64741" width="1.3662" height="1.3662" transform="translate(-8.72843 16.79596) rotate(-22.50786)"/><rect class="cls-4" x="37.79704" y="29.52006" width="0.70087" height="1.3662" transform="translate(-8.65627 16.90391) rotate(-22.50786)"/><rect class="cls-1" x="37.15706" y="29.64741" width="1.3662" height="1.3662" transform="translate(-8.72843 16.79596) rotate(-22.50786)"/><rect class="cls-1" x="36.63406" y="28.38528" width="1.3662" height="1.3662" transform="translate(-8.28511 16.49961) rotate(-22.50786)"/><rect class="cls-4" x="37.27405" y="28.25793" width="0.70087" height="1.3662" transform="translate(-8.21295 16.60756) rotate(-22.50786)"/><rect class="cls-1" x="36.63406" y="28.38528" width="1.3662" height="1.3662" transform="translate(-8.28511 16.49961) rotate(-22.50786)"/><rect class="cls-1" x="36.11107" y="27.12314" width="1.3662" height="1.3662" transform="translate(-7.84179 16.20327) rotate(-22.50786)"/><rect class="cls-4" x="36.75105" y="26.9958" width="0.70087" height="1.3662" transform="translate(-7.76963 16.31121) rotate(-22.50786)"/><rect class="cls-1" x="36.11107" y="27.12314" width="1.3662" height="1.3662" transform="translate(-7.84179 16.20327) rotate(-22.50786)"/><rect class="cls-1" x="35.58807" y="25.86101" width="1.3662" height="1.3662" transform="translate(-7.39847 15.90692) rotate(-22.50786)"/><rect class="cls-4" x="36.22806" y="25.73367" width="0.70087" height="1.3662" transform="translate(-7.32631 16.01486) rotate(-22.50786)"/><rect class="cls-1" x="35.58807" y="25.86101" width="1.3662" height="1.3662" transform="translate(-7.39847 15.90692) rotate(-22.50786)"/><rect class="cls-1" x="35.06508" y="24.59888" width="1.3662" height="1.3662" transform="translate(-6.95515 15.61057) rotate(-22.50786)"/><rect class="cls-4" x="35.70506" y="24.47154" width="0.70087" height="1.3662" transform="translate(-6.883 15.71852) rotate(-22.50786)"/><rect class="cls-1" x="35.06508" y="24.59888" width="1.3662" height="1.3662" transform="translate(-6.95515 15.61057) rotate(-22.50786)"/><rect class="cls-1" x="34.54208" y="23.33675" width="1.3662" height="1.3662" transform="translate(-6.51184 15.31422) rotate(-22.50786)"/><rect class="cls-4" x="35.18207" y="23.2094" width="0.70087" height="1.3662" transform="translate(-6.43968 15.42217) rotate(-22.50786)"/><rect class="cls-1" x="34.54208" y="23.33675" width="1.3662" height="1.3662" transform="translate(-6.51184 15.31422) rotate(-22.50786)"/><rect class="cls-1" x="34.01909" y="22.07462" width="1.3662" height="1.3662" transform="translate(-6.06852 15.01787) rotate(-22.50786)"/><rect class="cls-4" x="34.65907" y="21.94727" width="0.70087" height="1.3662" transform="translate(-5.99636 15.12582) rotate(-22.50786)"/><rect class="cls-1" x="34.01909" y="22.07462" width="1.3662" height="1.3662" transform="translate(-6.06852 15.01787) rotate(-22.50786)"/><rect class="cls-1" x="33.49609" y="20.81249" width="1.3662" height="1.3662" transform="translate(-5.6252 14.72153) rotate(-22.50786)"/><rect class="cls-4" x="34.13608" y="20.68514" width="0.70087" height="1.3662" transform="translate(-5.55304 14.82947) rotate(-22.50786)"/><rect class="cls-1" x="33.49609" y="20.81249" width="1.3662" height="1.3662" transform="translate(-5.6252 14.72153) rotate(-22.50786)"/><rect class="cls-1" x="38.94218" y="30.38654" width="1.3662" height="1.3662" transform="translate(-8.8754 17.53563) rotate(-22.50786)"/><rect class="cls-4" x="39.58217" y="30.2592" width="0.70087" height="1.3662" transform="translate(-8.80324 17.64358) rotate(-22.50786)"/><rect class="cls-1" x="38.94218" y="30.38654" width="1.3662" height="1.3662" transform="translate(-8.8754 17.53563) rotate(-22.50786)"/><rect class="cls-1" x="38.41919" y="29.12441" width="1.3662" height="1.3662" transform="translate(-8.43208 17.23928) rotate(-22.50786)"/><rect class="cls-4" x="39.05917" y="28.99707" width="0.70087" height="1.3662" transform="translate(-8.35992 17.34723) rotate(-22.50786)"/><rect class="cls-1" x="38.41919" y="29.12441" width="1.3662" height="1.3662" transform="translate(-8.43208 17.23928) rotate(-22.50786)"/><rect class="cls-1" x="37.89619" y="27.86228" width="1.3662" height="1.3662" transform="translate(-7.98876 16.94293) rotate(-22.50786)"/><rect class="cls-4" x="38.53618" y="27.73493" width="0.70087" height="1.3662" transform="translate(-7.9166 17.05088) rotate(-22.50786)"/><rect class="cls-1" x="37.89619" y="27.86228" width="1.3662" height="1.3662" transform="translate(-7.98876 16.94293) rotate(-22.50786)"/><rect class="cls-1" x="37.3732" y="26.60015" width="1.3662" height="1.3662" transform="translate(-7.54544 16.64659) rotate(-22.50786)"/><rect class="cls-4" x="38.01318" y="26.4728" width="0.70087" height="1.3662" transform="translate(-7.47328 16.75453) rotate(-22.50786)"/><rect class="cls-1" x="37.3732" y="26.60015" width="1.3662" height="1.3662" transform="translate(-7.54544 16.64659) rotate(-22.50786)"/><rect class="cls-1" x="36.8502" y="25.33802" width="1.3662" height="1.3662" transform="translate(-7.10213 16.35024) rotate(-22.50786)"/><rect class="cls-4" x="37.49019" y="25.21067" width="0.70087" height="1.3662" transform="translate(-7.02997 16.45818) rotate(-22.50786)"/><rect class="cls-1" x="36.8502" y="25.33802" width="1.3662" height="1.3662" transform="translate(-7.10213 16.35024) rotate(-22.50786)"/><rect class="cls-1" x="36.32721" y="24.07589" width="1.3662" height="1.3662" transform="translate(-6.65881 16.05389) rotate(-22.50786)"/><rect class="cls-4" x="36.96719" y="23.94854" width="0.70087" height="1.3662" transform="translate(-6.58665 16.16183) rotate(-22.50786)"/><rect class="cls-1" x="36.32721" y="24.07589" width="1.3662" height="1.3662" transform="translate(-6.65881 16.05389) rotate(-22.50786)"/><rect class="cls-1" x="35.80421" y="22.81376" width="1.3662" height="1.3662" transform="translate(-6.21549 15.75754) rotate(-22.50786)"/><rect class="cls-4" x="36.4442" y="22.68641" width="0.70087" height="1.3662" transform="translate(-6.14333 15.86549) rotate(-22.50786)"/><rect class="cls-1" x="35.80421" y="22.81376" width="1.3662" height="1.3662" transform="translate(-6.21549 15.75754) rotate(-22.50786)"/><rect class="cls-1" x="40.20431" y="29.86355" width="1.3662" height="1.3662" transform="translate(-8.57905 17.97895) rotate(-22.50786)"/><rect class="cls-4" x="40.8443" y="29.7362" width="0.70087" height="1.3662" transform="translate(-8.50689 18.08689) rotate(-22.50786)"/><rect class="cls-1" x="40.20431" y="29.86355" width="1.3662" height="1.3662" transform="translate(-8.57905 17.97895) rotate(-22.50786)"/><rect class="cls-1" x="39.68132" y="28.60142" width="1.3662" height="1.3662" transform="translate(-8.13573 17.6826) rotate(-22.50786)"/><rect class="cls-4" x="40.3213" y="28.47407" width="0.70087" height="1.3662" transform="translate(-8.06357 17.79055) rotate(-22.50786)"/><rect class="cls-1" x="39.68132" y="28.60142" width="1.3662" height="1.3662" transform="translate(-8.13573 17.6826) rotate(-22.50786)"/><rect class="cls-1" x="39.15832" y="27.33929" width="1.3662" height="1.3662" transform="translate(-7.69241 17.38625) rotate(-22.50786)"/><rect class="cls-4" x="39.79831" y="27.21194" width="0.70087" height="1.3662" transform="matrix(0.92383, -0.38281, 0.38281, 0.92383, -7.62026, 17.4942)"/><rect class="cls-1" x="39.15832" y="27.33929" width="1.3662" height="1.3662" transform="translate(-7.69241 17.38625) rotate(-22.50786)"/><rect class="cls-1" x="38.63533" y="26.07715" width="1.3662" height="1.3662" transform="translate(-7.2491 17.0899) rotate(-22.50786)"/><rect class="cls-4" x="39.27531" y="25.94981" width="0.70087" height="1.3662" transform="translate(-7.17694 17.19785) rotate(-22.50786)"/><rect class="cls-1" x="38.63533" y="26.07715" width="1.3662" height="1.3662" transform="translate(-7.2491 17.0899) rotate(-22.50786)"/><rect class="cls-1" x="38.11233" y="24.81502" width="1.3662" height="1.3662" transform="translate(-6.80578 16.79356) rotate(-22.50786)"/><rect class="cls-4" x="38.75232" y="24.68768" width="0.70087" height="1.3662" transform="translate(-6.73362 16.9015) rotate(-22.50786)"/><rect class="cls-1" x="38.11233" y="24.81502" width="1.3662" height="1.3662" transform="translate(-6.80578 16.79356) rotate(-22.50786)"/><rect class="cls-1" x="40.94345" y="28.07842" width="1.3662" height="1.3662" transform="translate(-7.83939 18.12592) rotate(-22.50786)"/><rect class="cls-4" x="41.58344" y="27.95108" width="0.70087" height="1.3662" transform="matrix(0.92383, -0.38281, 0.38281, 0.92383, -7.76723, 18.23386)"/><rect class="cls-1" x="40.94345" y="28.07842" width="1.3662" height="1.3662" transform="translate(-7.83939 18.12592) rotate(-22.50786)"/><rect class="cls-1" x="40.42045" y="26.81629" width="1.3662" height="1.3662" transform="translate(-7.39607 17.82957) rotate(-22.50786)"/><rect class="cls-4" x="41.06044" y="26.68894" width="0.70087" height="1.3662" transform="translate(-7.32391 17.93752) rotate(-22.50786)"/><rect class="cls-1" x="40.42045" y="26.81629" width="1.3662" height="1.3662" transform="translate(-7.39607 17.82957) rotate(-22.50786)"/></g><path class="cls-4" d="M11.55313,15.35963c-.28-3.711.43437-8.43951,4.86619-8.2793,4.78964.17314,6.19819,8.576,4.86674,12.28894A7.44481,7.44481,0,0,0,21.614,25.6086c1.47793,2.51361,2.12027,6.74222-1.17091,7.94395-2.25.8714-4.40525-1.44772-4.97725-3.70011-.21492-.97057-.31394-2.00805-.49978-2.88049C13.82877,21.63278,11.85252,20.18552,11.55313,15.35963Z"/></g></g></svg>