<?xml version="1.0" encoding="UTF-8"?>
<svg id="_レイヤー_1" data-name="レイヤー 1" xmlns="http://www.w3.org/2000/svg" viewBox="0 0 340 77.8">
  <defs>
    <style>
      .cls-1 {
        fill: #fff;
        stroke-width: 0px;
      }
    </style>
  </defs>
  <path class="cls-1" d="m6.5,2.9l-.3,26.2c.3-.1.6-.2.9-.2,3.2,0,20.4,4.4,26.5,9,.9.7,1.3,1.6,1.3,2.5,0,1.6-1.2,3.2-2.8,3.2-.6,0-1.3-.2-1.9-.7-5-3.7-18-8-23.5-8.8-.2,0-.4-.1-.6-.2v12.2c0,11.1.1,21.6.2,28.1.1,2.7-1.9,3.6-3.3,3.6-1.5,0-3-1-3-3.2v-.2c.5-11.5.8-34.4.8-52.3,0-7.9-.1-14.8-.2-19.3v-.1C.6.9,2,0,3.5,0s3,.9,3,2.8v.1Z"/>
  <path class="cls-1" d="m106.5,2.9l-.3,26.2c.3-.1.6-.2.9-.2,3.2,0,20.4,4.4,26.5,9,.9.7,1.3,1.6,1.3,2.5,0,1.6-1.2,3.2-2.8,3.2-.6,0-1.3-.2-1.9-.7-5-3.7-18-8-23.5-8.8-.2,0-.4-.1-.6-.2v12.2c0,11.1.1,21.6.2,28.1.1,2.7-1.9,3.6-3.3,3.6-1.5,0-3-1-3-3.2v-.2c.5-11.5.8-34.4.8-52.3,0-7.9-.1-14.8-.2-19.3v-.1c0-1.8,1.4-2.7,2.9-2.7s3,.9,3,2.8v.1Z"/>
  <path class="cls-1" d="m177,72.3c0-1.1.8-2.3,2.7-3.1,20.3-8.6,40.6-34,47.6-56.2.6-2,1.9-2.8,3.2-2.8,1.7,0,3.4,1.5,3.4,3.4,0,.4,0,.8-.2,1.2-16.1,42.6-49.4,60.3-53.4,60.3-1.9,0-3.3-1.3-3.3-2.8Z"/>
  <path class="cls-1" d="m289.1,42.3c0,1.9-1.6,2.9-3.1,2.9s-2.9-.8-2.9-2.6v-6.6c0-2.8,0-5.8-.1-8.3v-.2c0-6.5,5.8-9.2,10.4-9.3,4.7-.1,9.9-.2,15.1-.2,0-4.3-.1-11.5-.1-14.1,0-1.9,1.5-2.7,3-2.7,1.4,0,2.9.8,2.9,2.5v14.3c5.4,0,10.7,0,15.3.1,6.8.2,10.4,4.2,10.4,9.2v.6c-2.3,40.2-42.3,48.8-44.2,48.8s-3.1-1.4-3.1-2.8c0-1.2.8-2.4,2.6-2.8,32.3-7.9,38.4-32.2,38.4-42.7,0-3.8-2.1-5.2-5.6-5.4-4-.2-10.1-.3-16.3-.3-7,0-13.9.1-17.1.3-4.7.3-5.9,3-5.9,5.7,0,2.4.2,10.4.3,13.5v.1Z"/>
</svg>