<!--?xml version="1.0" encoding="utf-8"?-->
<!-- Generator: Adobe Illustrator 18.1.1, SVG Export Plug-In . SVG Version: 6.00 Build 0)  -->

<svg version="1.1" id="_x31_0" xmlns="http://www.w3.org/2000/svg" xmlns:xlink="http://www.w3.org/1999/xlink" x="0px" y="0px" viewBox="0 0 512 512" style="width: 256px; height: 256px; opacity: 1;" xml:space="preserve">
<style type="text/css">
	.st0{fill:#374149;}
</style>
<g>
	<path class="st0" d="M501.598,42.56H10.398C4.641,42.56,0,47.201,0,52.963v405.996c0,5.762,4.641,10.481,10.398,10.481h491.199
		c5.762,0,10.402-4.719,10.402-10.481V52.963C512,47.201,507.359,42.56,501.598,42.56z M252.558,108.643
		c0-14.242,11.602-25.84,25.84-25.84c14.32,0,25.922,11.598,25.922,25.84c0,14.32-11.602,25.918-25.922,25.918
		C264.16,134.56,252.558,122.963,252.558,108.643z M326.558,108.643c0-14.242,11.52-25.84,25.84-25.84
		c14.32,0,25.922,11.598,25.922,25.84c0,14.32-11.602,25.918-25.922,25.918C338.078,134.56,326.558,122.963,326.558,108.643z
		 M400.481,108.643c0-14.242,11.598-25.84,25.918-25.84c14.242,0,25.84,11.598,25.84,25.84c0,14.32-11.598,25.918-25.84,25.918
		C412.078,134.56,400.481,122.963,400.481,108.643z M456,168.084V413.44H56V168.08h398.938L456,168.084z" style="fill: rgb(165, 137, 106);"></path>
	<path class="st0" d="M167.461,332.611c3.332,3.622,7.43,6.379,12.176,8.196c4.714,1.808,10.066,2.726,15.902,2.726
		c2.98,0,5.805-0.246,8.378-0.73c2.582-0.489,4.875-1.094,6.891-1.825c2.023-0.734,3.742-1.503,5.148-2.308
		c1.458-0.836,2.438-1.524,2.993-2.102c0.542-0.566,0.937-1.078,1.202-1.551c0.262-0.473,0.473-1.035,0.622-1.668
		c0.141-0.582,0.25-1.281,0.32-2.102c0.062-0.781,0.102-1.726,0.102-2.839c0-1.594-0.046-2.864-0.137-3.817
		c-0.094-1.023-0.234-1.809-0.442-2.414c-0.25-0.762-0.605-1.285-1.074-1.601l-1.317-0.446h-0.332c-0.801,0-1.75,0.39-2.977,1.226
		c-0.992,0.672-2.25,1.43-3.785,2.274c-1.523,0.832-3.344,1.586-5.465,2.274c-2.078,0.672-4.594,1.011-7.481,1.011
		c-3.148,0-6.015-0.542-8.511-1.621c-2.473-1.066-4.61-2.703-6.363-4.879c-1.77-2.199-3.157-5.058-4.126-8.492
		c-0.98-3.484-1.476-7.676-1.476-12.461c0-4.363,0.465-8.336,1.382-11.801c0.91-3.426,2.25-6.379,3.996-8.778
		c1.719-2.367,3.828-4.214,6.274-5.484c2.434-1.27,5.25-1.91,8.371-1.91c2.882,0,5.375,0.359,7.426,1.07
		c2.102,0.726,3.902,1.531,5.422,2.426c1.531,0.898,2.773,1.715,3.738,2.45c1.199,0.91,2.219,1.355,3.122,1.355
		c0.648,0,1.254-0.226,1.75-0.652c0.45-0.383,0.805-0.93,1.09-1.672c0.25-0.66,0.426-1.473,0.519-2.489
		c0.086-0.934,0.137-2.066,0.137-3.398c0-1.242-0.031-2.281-0.102-3.121c-0.07-0.875-0.176-1.637-0.313-2.282
		c-0.152-0.714-0.363-1.3-0.633-1.789c-0.27-0.48-0.718-1.035-1.378-1.699c-0.661-0.66-1.742-1.406-3.309-2.281
		c-1.52-0.848-3.226-1.598-5.125-2.246c-1.883-0.641-3.926-1.16-6.141-1.558c-2.211-0.398-4.516-0.602-6.914-0.602
		c-5.847,0-11.277,1.008-16.148,2.992c-4.891,1.992-9.145,4.953-12.645,8.809c-3.484,3.843-6.238,8.641-8.176,14.274
		c-1.922,5.601-2.902,12.094-2.902,19.289c0,7.062,0.891,13.355,2.641,18.695C161.558,324.444,164.137,329.002,167.461,332.611z" style="fill: rgb(165, 137, 106);"></path>
	<path class="st0" d="M234.621,336.877c0.637,0.633,1.61,1.324,2.977,2.113c1.32,0.762,2.961,1.492,4.934,2.184
		c1.942,0.683,4.176,1.27,6.719,1.758c2.531,0.484,5.308,0.73,8.25,0.73c4.348,0,8.5-0.582,12.336-1.726
		c3.859-1.157,7.289-2.902,10.187-5.199c2.918-2.313,5.258-5.23,6.961-8.68c1.699-3.457,2.566-7.508,2.566-12.054
		c0-3.492-0.546-6.578-1.636-9.18c-1.074-2.582-2.512-4.863-4.274-6.781c-1.746-1.898-3.758-3.551-5.989-4.914
		c-2.191-1.336-4.426-2.527-6.702-3.582c-2.25-1.034-4.454-2.019-6.618-2.949c-2.102-0.902-3.981-1.867-5.637-2.894
		c-1.578-0.981-2.844-2.106-3.77-3.344c-0.875-1.172-1.297-2.531-1.297-4.152c0-1.102,0.199-2.161,0.598-3.145
		c0.387-0.961,0.961-1.762,1.766-2.45c0.805-0.699,1.848-1.258,3.078-1.664c1.262-0.41,2.774-0.621,4.504-0.621
		c2.25,0,4.343,0.278,6.21,0.828c1.922,0.562,3.614,1.188,5.078,1.875c1.469,0.699,2.715,1.34,3.726,1.93
		c1.25,0.726,2.118,1.054,2.817,1.054c0.758,0,1.386-0.23,1.878-0.683c0.442-0.406,0.754-0.977,0.966-1.75
		c0.16-0.613,0.285-1.394,0.355-2.336c0.066-0.886,0.102-1.968,0.102-3.25c0-1.145-0.024-2.102-0.07-2.871
		c-0.043-0.824-0.129-1.504-0.25-2.046c-0.129-0.59-0.285-1.066-0.476-1.454c-0.207-0.41-0.562-0.867-1.078-1.386
		c-0.531-0.531-1.469-1.114-2.949-1.828c-1.387-0.668-2.969-1.27-4.75-1.805c-1.774-0.535-3.672-0.954-5.707-1.266
		c-2.035-0.309-4.078-0.465-6.113-0.465c-3.918,0-7.684,0.519-11.192,1.531c-3.55,1.027-6.679,2.602-9.293,4.687
		c-2.641,2.094-4.766,4.766-6.316,7.938c-1.551,3.176-2.344,6.89-2.344,11.047c0,3.621,0.55,6.785,1.637,9.406
		c1.078,2.602,2.504,4.895,4.238,6.813c1.722,1.894,3.699,3.55,5.89,4.91c2.149,1.339,4.359,2.535,6.645,3.586
		c2.246,1.039,4.43,2.02,6.546,2.95c2.051,0.902,3.887,1.867,5.504,2.894c1.539,0.98,2.805,2.109,3.75,3.355
		c0.894,1.168,1.328,2.547,1.328,4.211c0,1.473-0.27,2.816-0.809,4c-0.527,1.168-1.297,2.164-2.293,2.953
		c-1.031,0.813-2.313,1.457-3.805,1.906c-1.527,0.461-3.289,0.695-5.238,0.695c-3.023,0-5.711-0.34-7.988-1.019
		c-2.321-0.688-4.321-1.45-5.989-2.286c-1.679-0.84-3.058-1.609-4.129-2.301c-1.308-0.847-2.312-1.242-3.152-1.242
		c-0.668,0-1.27,0.191-1.782,0.57c-0.507,0.367-0.898,0.95-1.168,1.723c-0.222,0.648-0.378,1.453-0.472,2.453
		c-0.086,0.934-0.137,2.09-0.137,3.465c0,2.082,0.125,3.649,0.382,4.797C233.414,335.174,233.914,336.17,234.621,336.877z" style="fill: rgb(165, 137, 106);"></path>
	<path class="st0" d="M299.91,336.877c0.637,0.633,1.609,1.324,2.98,2.113c1.317,0.762,2.961,1.492,4.93,2.184
		c1.946,0.683,4.18,1.27,6.719,1.758c2.531,0.484,5.312,0.73,8.25,0.73c4.352,0,8.504-0.582,12.336-1.726
		c3.859-1.157,7.29-2.902,10.188-5.199c2.918-2.313,5.262-5.23,6.961-8.68c1.703-3.457,2.57-7.508,2.57-12.054
		c0-3.492-0.551-6.578-1.637-9.18c-1.078-2.582-2.516-4.863-4.278-6.781c-1.742-1.898-3.758-3.551-5.988-4.914
		c-2.191-1.336-4.426-2.527-6.703-3.582c-2.25-1.034-4.454-2.019-6.618-2.949c-2.098-0.902-3.976-1.867-5.637-2.894
		c-1.578-0.981-2.843-2.106-3.769-3.344c-0.871-1.172-1.298-2.531-1.298-4.152c0-1.102,0.199-2.161,0.598-3.145
		c0.386-0.961,0.965-1.762,1.766-2.45c0.808-0.699,1.847-1.258,3.082-1.664c1.258-0.41,2.774-0.621,4.5-0.621
		c2.25,0,4.344,0.278,6.215,0.828c1.922,0.562,3.613,1.188,5.074,1.875c1.473,0.699,2.715,1.34,3.727,1.93
		c1.25,0.726,2.117,1.054,2.816,1.054c0.762,0,1.39-0.23,1.879-0.683c0.442-0.406,0.754-0.977,0.965-1.75
		c0.16-0.613,0.285-1.394,0.355-2.336c0.07-0.886,0.102-1.968,0.102-3.25c0-1.145-0.019-2.102-0.07-2.871
		c-0.042-0.824-0.129-1.504-0.246-2.046c-0.13-0.59-0.286-1.066-0.481-1.454c-0.203-0.41-0.558-0.867-1.074-1.386
		c-0.535-0.531-1.473-1.114-2.953-1.828c-1.383-0.668-2.965-1.27-4.75-1.805c-1.77-0.535-3.671-0.954-5.706-1.266
		c-2.035-0.309-4.074-0.465-6.11-0.465c-3.922,0-7.684,0.519-11.195,1.531c-3.547,1.027-6.676,2.602-9.294,4.687
		c-2.636,2.094-4.766,4.766-6.316,7.938c-1.55,3.176-2.34,6.89-2.34,11.047c0,3.621,0.547,6.785,1.637,9.406
		c1.074,2.602,2.504,4.895,4.234,6.813c1.722,1.894,3.699,3.55,5.89,4.91c2.149,1.339,4.363,2.535,6.645,3.586
		c2.246,1.039,4.434,2.02,6.547,2.95c2.054,0.902,3.89,1.867,5.503,2.894c1.539,0.98,2.805,2.109,3.754,3.355
		c0.894,1.168,1.324,2.547,1.324,4.211c0,1.473-0.27,2.816-0.809,4c-0.527,1.168-1.297,2.164-2.293,2.953
		c-1.027,0.813-2.309,1.457-3.801,1.906c-1.531,0.461-3.289,0.695-5.238,0.695c-3.027,0-5.714-0.34-7.992-1.019
		c-2.32-0.688-4.316-1.45-5.988-2.286c-1.68-0.84-3.058-1.609-4.129-2.301c-1.309-0.847-2.309-1.242-3.149-1.242
		c-0.668,0-1.274,0.191-1.781,0.57c-0.508,0.367-0.902,0.95-1.172,1.723c-0.219,0.648-0.375,1.453-0.473,2.453
		c-0.086,0.934-0.133,2.09-0.133,3.465c0,2.082,0.121,3.649,0.382,4.797C298.707,335.174,299.207,336.17,299.91,336.877z" style="fill: rgb(165, 137, 106);"></path>
	<path class="st0" d="M106.984,301.4c0.294,0.606,0.661,1.086,1.09,1.426c0.442,0.348,0.965,0.582,1.609,0.711
		c1.462,0.226,2.703,0.706,3.7,1.422c1.011,0.722,1.851,1.645,2.503,2.734c0.668,1.118,1.168,2.434,1.485,3.902
		c0.324,1.508,0.492,3.606,0.492,6.226v11.114c0,4.953,0.282,9.058,0.824,12.207c0.563,3.234,1.559,5.972,2.973,8.136
		c1.442,2.207,3.394,3.914,5.809,5.074c2.379,1.145,5.39,1.726,8.942,1.726c1.16,0,2.21-0.046,3.14-0.136
		c0.966-0.09,1.966-0.274,3.012-0.547l1.168-0.5l0.172-0.125c0.446-0.321,0.824-0.778,1.117-1.371
		c0.27-0.539,0.465-1.207,0.59-2.039c0.117-0.754,0.175-1.726,0.175-2.91c0-1.218-0.046-2.21-0.14-2.973
		c-0.102-0.874-0.294-1.582-0.602-2.16c-0.352-0.672-0.867-1.164-1.524-1.465c-0.55-0.246-1.195-0.394-2.003-0.453l-2.34,0.004
		c-0.75-0.035-1.371-0.195-1.828-0.481c-0.43-0.27-0.805-0.766-1.126-1.484c-0.359-0.821-0.633-1.977-0.816-3.434
		c-0.191-1.543-0.282-3.922-0.282-7.133v-10.856c0-3.336-0.246-6.195-0.738-8.5c-0.496-2.343-1.308-4.504-2.418-6.43
		c-1.118-1.945-2.594-3.629-4.383-5.008c-0.633-0.484-1.402-0.847-2.14-1.238c-0.367-0.234-0.68-0.458-1.066-0.715
		c1.183-0.519,2.262-1.145,3.214-1.89c1.782-1.394,3.258-3.078,4.375-5c1.11-1.898,1.922-4.055,2.418-6.398
		c0.493-2.305,0.738-5.184,0.738-8.562v-8.012c0-3.258,0.09-5.656,0.282-7.199c0.176-1.446,0.469-2.59,0.867-3.398
		c0.343-0.707,0.77-1.191,1.258-1.442c0.558-0.293,1.309-0.457,2.207-0.496l2.359-0.058l1.324-0.293l0.25-0.141
		c0.55-0.313,0.988-0.817,1.301-1.508c0.258-0.562,0.453-1.242,0.602-2.074c0.137-0.785,0.21-1.77,0.21-2.969
		c0-1.141-0.058-2.106-0.171-2.902c-0.13-0.882-0.317-1.574-0.594-2.113c-0.293-0.594-0.671-1.055-1.117-1.375
		c-0.453-0.324-0.977-0.519-1.434-0.562c-0.985-0.226-1.95-0.394-2.89-0.508c-0.942-0.11-1.996-0.168-3.168-0.168
		c-3.504,0-6.493,0.566-8.867,1.687c-2.418,1.141-4.387,2.86-5.852,5.114c-1.434,2.207-2.441,4.954-3.004,8.164
		c-0.542,3.129-0.824,7.226-0.824,12.176v8.336c0,4.629-0.742,8.148-2.218,10.457c-1.422,2.234-3.43,3.508-6.199,3.902
		c-0.574,0.118-1.074,0.317-1.481,0.594c-0.457,0.321-0.824,0.821-1.102,1.492c-0.23,0.578-0.394,1.298-0.496,2.207
		c-0.086,0.828-0.133,1.848-0.133,3.058c0,1.176,0.058,2.176,0.172,2.993C106.527,300.131,106.722,300.842,106.984,301.4z" style="fill: rgb(165, 137, 106);"></path>
	<path class="st0" d="M384.289,298.513c-1.793,1.699-3.25,3.723-4.339,6.012c-1.07,2.25-1.856,4.718-2.348,7.344
		c-0.485,2.598-0.73,5.602-0.73,8.926v8.078c0,3.214-0.09,5.602-0.282,7.168c-0.175,1.461-0.469,2.617-0.867,3.426
		c-0.343,0.707-0.77,1.191-1.258,1.445c-0.558,0.29-1.309,0.454-2.176,0.489l-2.59,0.011l-1.234,0.383l-0.199,0.121
		c-0.504,0.301-0.93,0.79-1.258,1.454c-0.293,0.574-0.5,1.266-0.653,2.109c-0.133,0.786-0.21,1.774-0.21,2.973
		c0,1.199,0.078,2.18,0.21,2.942c0.153,0.824,0.356,1.481,0.622,2.008c0.289,0.578,0.644,1.035,1.054,1.351l1.141,0.61l0.254,0.05
		c1.11,0.219,2.125,0.387,3.058,0.497c0.942,0.113,1.973,0.171,3.102,0.171c3.508,0,6.497-0.582,8.879-1.726
		c2.41-1.16,4.375-2.878,5.836-5.106c1.43-2.183,2.446-4.922,3.008-8.137c0.542-3.125,0.824-7.222,0.824-12.175V320.6
		c0-2.805,0.172-5.145,0.527-7.031c0.352-1.836,0.883-3.516,1.594-4.992c0.692-1.438,1.566-2.649,2.626-3.602
		c1-0.91,2.179-1.442,3.578-1.63c0.57-0.062,1.094-0.258,1.551-0.586c0.484-0.344,0.855-0.867,1.106-1.554
		c0.203-0.551,0.359-1.238,0.476-2.098c0.114-0.813,0.172-1.856,0.172-3.126c0-1.195-0.074-2.191-0.207-2.996
		c-0.144-0.84-0.324-1.515-0.55-2.07c-0.274-0.664-0.656-1.179-1.145-1.538c-0.48-0.352-1.019-0.563-1.519-0.618
		c-1.547-0.282-2.875-0.668-3.954-1.149c-1-0.445-1.808-1.038-2.406-1.762c-0.602-0.734-1.066-1.691-1.367-2.843
		c-0.317-1.215-0.481-3.133-0.481-5.695v-11.114c0-4.992-0.282-9.114-0.824-12.242c-0.562-3.211-1.558-5.945-2.973-8.125
		c-1.442-2.234-3.402-3.946-5.82-5.086c-2.375-1.121-5.383-1.687-8.93-1.687c-1.117,0-2.14,0.043-3.074,0.133
		c-0.965,0.094-1.969,0.274-2.867,0.52c-0.574,0.066-1.098,0.262-1.551,0.586c-0.434,0.313-0.816,0.762-1.129,1.336
		c-0.309,0.55-0.519,1.258-0.648,2.152c-0.114,0.797-0.172,1.762-0.172,2.902c0,1.215,0.05,2.211,0.14,3
		c0.102,0.918,0.325,1.645,0.665,2.219c0.374,0.625,0.886,1.09,1.527,1.374c0.57,0.258,1.266,0.387,2.035,0.387l2.308,0.062
		c0.766,0.035,1.406,0.195,1.898,0.473c0.426,0.238,0.786,0.722,1.07,1.43c0.352,0.855,0.618,2.031,0.801,3.496
		c0.192,1.543,0.282,3.922,0.282,7.137v10.789c0,3.391,0.254,6.129,0.742,8.145c0.507,2.062,1.324,3.91,2.434,5.477
		c1.121,1.59,2.617,2.937,4.449,4c0.606,0.355,1.332,0.637,2.027,0.937c0.367,0.2,0.684,0.36,1.082,0.594
		C386.386,296.818,385.274,297.58,384.289,298.513z" style="fill: rgb(165, 137, 106);"></path>
</g>
</svg>
