<!--?xml version="1.0" encoding="utf-8"?-->
<!-- Generator: Adobe Illustrator 18.1.1, SVG Export Plug-In . SVG Version: 6.00 Build 0)  -->

<svg version="1.1" id="_x31_0" xmlns="http://www.w3.org/2000/svg" xmlns:xlink="http://www.w3.org/1999/xlink" x="0px" y="0px" viewBox="0 0 512 512" style="width: 256px; height: 256px; opacity: 1;" xml:space="preserve">
<style type="text/css">
	.st0{fill:#374149;}
</style>
<g>
	<path class="st0" d="M501.598,42.56H10.398C4.641,42.56,0,47.201,0,52.963v405.996c0,5.762,4.641,10.481,10.398,10.481h491.199
		c5.762,0,10.402-4.719,10.402-10.481V52.963C512,47.201,507.359,42.56,501.598,42.56z M252.558,108.643
		c0-14.242,11.602-25.84,25.84-25.84c14.32,0,25.922,11.598,25.922,25.84c0,14.32-11.602,25.918-25.922,25.918
		C264.16,134.56,252.558,122.963,252.558,108.643z M326.558,108.643c0-14.242,11.52-25.84,25.84-25.84
		c14.32,0,25.922,11.598,25.922,25.84c0,14.32-11.602,25.918-25.922,25.918C338.078,134.56,326.558,122.963,326.558,108.643z
		 M400.481,108.643c0-14.242,11.598-25.84,25.918-25.84c14.242,0,25.84,11.598,25.84,25.84c0,14.32-11.598,25.918-25.84,25.918
		C412.078,134.56,400.481,122.963,400.481,108.643z M456,168.08v244.024v1.336H56V168.08h398.938H456z" style="fill: rgb(165, 137, 106);"></path>
	<path class="st0" d="M85.34,304.799l44.84,22.332c0.687,0.324,1.266,0.504,1.75,0.554l0.211,0.012l1.34-0.473l0.297-0.414
		c0.347-0.489,0.594-1.207,0.734-2.196c0.121-0.851,0.183-2.027,0.183-3.531c0-1.668-0.043-2.992-0.121-3.965
		c-0.082-1.05-0.234-1.875-0.458-2.523c-0.262-0.754-0.667-1.34-1.202-1.734c-0.414-0.305-0.946-0.614-1.602-0.922l-19.055-8.832
		l-11.898-5.63l31.625-14.828c0.547-0.273,0.973-0.542,1.309-0.836c0.43-0.367,0.742-0.906,0.958-1.652
		c0.171-0.618,0.289-1.414,0.355-2.43c0.062-0.954,0.09-2.238,0.09-3.859c0-2.586-0.274-4.227-0.851-5.172
		c-0.45-0.73-1.161-1.137-2-1.137c-0.512,0-1.062,0.145-1.688,0.446l-44.812,22.234l-0.91,0.778l-0.125,0.172
		c-0.297,0.402-0.512,0.902-0.664,1.523c-0.126,0.52-0.234,1.188-0.317,2c-0.078,0.79-0.121,1.711-0.121,2.762
		c0,2.09,0.137,3.633,0.414,4.715C83.942,303.455,84.5,304.322,85.34,304.799z" style="fill: rgb(165, 137, 106);"></path>
	<path class="st0" d="M148.418,331.963c0.645,0.218,1.454,0.382,2.473,0.484c0.961,0.106,2.184,0.157,3.668,0.157
		c1.485,0,2.707-0.051,3.668-0.157c1.024-0.102,1.828-0.266,2.473-0.484c0.754-0.262,1.297-0.606,1.652-1.051
		c0.375-0.472,0.57-1.023,0.57-1.644l-0.214-34.035c1.996-2.523,3.934-4.465,5.754-5.766c1.73-1.234,3.438-1.859,5.09-1.859
		c1.313,0,2.469,0.25,3.434,0.738c0.969,0.493,1.731,1.168,2.344,2.066c0.633,0.934,1.125,2.078,1.469,3.399
		c0.344,1.355,0.52,3.277,0.52,5.714v29.742c0,0.621,0.195,1.172,0.57,1.644c0.356,0.442,0.879,0.786,1.614,1.047
		c0.625,0.222,1.438,0.386,2.481,0.488c0.984,0.106,2.214,0.157,3.699,0.157c1.437,0,2.652-0.051,3.637-0.157
		c1.038-0.102,1.855-0.266,2.48-0.488c0.73-0.262,1.258-0.606,1.614-1.047c0.374-0.472,0.57-1.023,0.57-1.644v-31.965
		c0-3.918-0.348-7.313-1.024-10.082c-0.691-2.824-1.84-5.336-3.41-7.457c-1.59-2.149-3.699-3.863-6.27-5.098
		c-2.562-1.226-5.727-1.852-9.402-1.852c-2.977,0-5.883,0.653-8.633,1.938c-1.699,0.793-3.383,1.918-5.043,3.223
		c-0.43,0.293-0.84,0.554-1.278,0.87v-26.418c0-0.61-0.187-1.164-0.55-1.652c-0.355-0.469-0.894-0.836-1.645-1.122
		c-0.644-0.246-1.461-0.426-2.48-0.554c-0.965-0.122-2.199-0.184-3.688-0.184c-1.488,0-2.722,0.062-3.687,0.184
		c-1.02,0.129-1.832,0.309-2.481,0.554c-0.75,0.286-1.285,0.653-1.64,1.122c-0.367,0.488-0.551,1.042-0.551,1.652v76.84
		c0,0.621,0.195,1.172,0.566,1.644C147.129,331.357,147.664,331.701,148.418,331.963z" style="fill: rgb(165, 137, 106);"></path>
	<path class="st0" d="M207.676,288.076h5.254v25.706c0,3.27,0.344,6.153,1.031,8.57c0.703,2.473,1.817,4.562,3.321,6.211
		c1.511,1.656,3.434,2.898,5.726,3.687c2.242,0.778,4.906,1.168,7.922,1.168c1.125,0,2.246-0.062,3.352-0.183
		c1.117-0.122,2.148-0.293,3.102-0.516c0.98-0.226,1.832-0.5,2.562-0.816c0.812-0.348,1.426-0.746,1.878-1.223
		c0.477-0.504,0.832-1.285,1.09-2.386c0.234-1,0.351-2.363,0.351-4.172c0-1.145-0.054-2.086-0.156-2.824
		c-0.106-0.758-0.223-1.359-0.352-1.805l-0.598-1.18l-0.32-0.203c-0.375-0.238-0.786-0.359-1.207-0.359l-1.106,0.203l-1.363,0.527
		c-0.453,0.161-0.965,0.305-1.547,0.43c-0.546,0.122-1.179,0.184-1.886,0.184c-1.949,0-3.242-0.547-3.949-1.668
		c-0.79-1.254-1.188-3.226-1.188-5.867v-23.484h10.394c0.809,0,1.914-0.344,2.61-1.985c0.45-1.047,0.668-2.676,0.668-4.977
		c0-1.175-0.054-2.171-0.156-2.984c-0.106-0.883-0.278-1.574-0.512-2.114c-0.27-0.625-0.637-1.098-1.09-1.398
		c-0.458-0.305-0.989-0.461-1.578-0.461h-10.336v-10.629c0-0.61-0.187-1.164-0.55-1.652c-0.352-0.466-0.879-0.833-1.602-1.118
		c-0.641-0.25-1.461-0.422-2.512-0.531c-0.984-0.102-2.218-0.152-3.699-0.152c-1.442,0-2.652,0.05-3.637,0.152
		c-1.05,0.11-1.878,0.278-2.531,0.527c-0.766,0.289-1.301,0.668-1.637,1.156c-0.324,0.481-0.496,1.024-0.496,1.618v10.629h-5.195
		c-0.59,0-1.121,0.156-1.578,0.461c-0.453,0.301-0.82,0.774-1.09,1.398c-0.234,0.539-0.406,1.23-0.512,2.114
		c-0.102,0.813-0.156,1.809-0.156,2.984c0,2.301,0.218,3.93,0.668,4.977C205.762,287.732,206.867,288.076,207.676,288.076z" style="fill: rgb(165, 137, 106);"></path>
	<path class="st0" d="M254.125,331.963c0.641,0.218,1.454,0.382,2.473,0.484c0.961,0.106,2.184,0.157,3.668,0.157
		c1.485,0,2.707-0.051,3.668-0.157c1.019-0.102,1.828-0.266,2.473-0.484c0.754-0.262,1.289-0.606,1.648-1.051
		c0.375-0.472,0.57-1.023,0.57-1.644l-0.21-34.035c2-2.531,3.882-4.477,5.602-5.786c1.609-1.222,3.214-1.839,4.773-1.839
		c1.227,0,2.309,0.246,3.207,0.73c0.91,0.484,1.633,1.156,2.207,2.054c0.594,0.93,1.05,2.074,1.355,3.394
		c0.317,1.363,0.473,2.898,0.473,4.566v30.914c0,0.621,0.195,1.172,0.566,1.644c0.363,0.446,0.898,0.79,1.653,1.051
		c0.644,0.218,1.453,0.382,2.472,0.484c0.961,0.106,2.184,0.157,3.668,0.157c1.442,0,2.649-0.051,3.61-0.157
		c1.023-0.102,1.828-0.266,2.473-0.484c0.754-0.262,1.289-0.606,1.652-1.051c0.375-0.472,0.566-1.023,0.566-1.644l-0.222-34.027
		c2.047-2.535,3.953-4.485,5.672-5.794c1.61-1.222,3.195-1.839,4.714-1.839c1.266,0,2.352,0.246,3.234,0.722
		c0.879,0.484,1.626,1.183,2.215,2.074c0.613,0.926,1.074,2.062,1.378,3.382c0.317,1.363,0.473,2.898,0.473,4.566v30.914
		c0,0.602,0.172,1.144,0.516,1.61c0.34,0.465,0.875,0.82,1.645,1.086c0.644,0.218,1.453,0.382,2.472,0.484
		c0.962,0.106,2.203,0.157,3.727,0.157c1.484,0,2.706-0.051,3.667-0.157c1.02-0.102,1.825-0.266,2.454-0.488
		c0.73-0.262,1.258-0.606,1.614-1.047c0.374-0.472,0.57-1.023,0.57-1.644V295.9c0-3.058-0.328-6.008-0.961-8.758
		c-0.652-2.805-1.762-5.298-3.293-7.402c-1.55-2.13-3.614-3.832-6.125-5.07c-2.504-1.23-5.602-1.856-9.203-1.856
		c-1.598,0-3.18,0.199-4.715,0.586c-1.527,0.386-3.078,0.988-4.594,1.777c-1.523,0.79-3.054,1.809-4.61,3.059
		c-1.023,0.828-2.07,1.82-3.125,2.855c-0.214,0.184-0.375,0.324-0.602,0.512c-0.562-1.008-1.203-1.954-1.926-2.821
		c-1.039-1.242-2.285-2.324-3.715-3.218c-1.422-0.887-3.058-1.574-4.859-2.043c-1.789-0.469-3.824-0.707-6.039-0.707
		c-3.273,0-6.445,0.829-9.445,2.462c-1.856,1.007-3.723,2.437-5.586,4.078c-0.519,0.414-1.019,0.782-1.558,1.226v-3.437
		c0-0.59-0.156-1.118-0.465-1.574c-0.301-0.454-0.77-0.821-1.39-1.094c-0.547-0.234-1.258-0.402-2.184-0.512
		c-0.847-0.102-1.918-0.156-3.21-0.156c-1.258,0-2.301,0.054-3.133,0.156c-0.887,0.11-1.606,0.27-2.196,0.496
		c-0.706,0.274-1.206,0.637-1.519,1.11c-0.309,0.457-0.461,0.984-0.461,1.574v52.125c0,0.621,0.191,1.172,0.566,1.644
		C252.836,331.357,253.371,331.701,254.125,331.963z" style="fill: rgb(165, 137, 106);"></path>
	<path class="st0" d="M351.477,331.963c0.64,0.218,1.449,0.382,2.473,0.484c0.957,0.106,2.179,0.157,3.667,0.157
		c1.485,0,2.707-0.051,3.665-0.157c1.023-0.102,1.832-0.266,2.476-0.484c0.754-0.262,1.29-0.606,1.649-1.051
		c0.375-0.472,0.57-1.023,0.57-1.644v-76.84c0-0.61-0.184-1.164-0.551-1.652c-0.355-0.469-0.89-0.836-1.641-1.122
		c-0.648-0.246-1.461-0.426-2.484-0.554c-0.965-0.122-2.195-0.184-3.684-0.184c-1.492,0-2.722,0.062-3.687,0.184
		c-1.023,0.129-1.836,0.309-2.484,0.554c-0.75,0.286-1.286,0.653-1.641,1.122c-0.363,0.488-0.551,1.042-0.551,1.652v76.84
		c0,0.621,0.196,1.172,0.57,1.644C350.18,331.357,350.718,331.701,351.477,331.963z" style="fill: rgb(165, 137, 106);"></path>
	<path class="st0" d="M380.019,312.451c-0.578,0.246-1.042,0.524-1.402,0.863c-0.414,0.383-0.714,0.922-0.926,1.657
		c-0.175,0.617-0.293,1.414-0.355,2.43c-0.062,0.949-0.09,2.238-0.09,3.859c0,1.222,0.05,2.226,0.152,3.019
		c0.118,0.918,0.344,1.622,0.68,2.141c0.531,0.817,1.214,1.043,1.703,1.094l0.25,0.012c0.519,0,1.074-0.152,1.691-0.461
		l44.77-22.184l0.981-0.722l0.16-0.218c0.293-0.395,0.516-0.895,0.687-1.528c0.145-0.546,0.262-1.222,0.352-2.023
		c0.078-0.77,0.121-1.679,0.121-2.734c0-2.102-0.156-3.664-0.476-4.777c-0.379-1.317-0.95-2.134-1.715-2.485l-44.871-22.379
		c-0.664-0.332-1.238-0.515-1.969-0.578l-1.359,0.473l-0.297,0.41c-0.355,0.496-0.59,1.223-0.707,2.223
		c-0.102,0.843-0.152,2.011-0.152,3.503c0,1.665,0.027,2.981,0.09,3.95c0.062,1.054,0.207,1.886,0.43,2.543
		c0.262,0.754,0.668,1.34,1.199,1.734c0.438,0.32,0.988,0.621,1.664,0.922l19.012,8.817l11.942,5.648L380.019,312.451z" style="fill: rgb(165, 137, 106);"></path>
</g>
</svg>
