<!--?xml version="1.0" encoding="utf-8"?-->
<!-- Generator: Adobe Illustrator 18.1.1, SVG Export Plug-In . SVG Version: 6.00 Build 0)  -->

<svg version="1.1" id="_x31_0" xmlns="http://www.w3.org/2000/svg" xmlns:xlink="http://www.w3.org/1999/xlink" x="0px" y="0px" viewBox="0 0 512 512" style="width: 256px; height: 256px; opacity: 1;" xml:space="preserve">
<style type="text/css">
	.st0{fill:#374149;}
</style>
<g>
	<path class="st0" d="M501.602,42.562H10.402C4.641,42.562,0,47.203,0,52.961v406c0,5.758,4.641,10.477,10.402,10.477h491.199
		c5.758,0,10.398-4.719,10.398-10.477v-406C512,47.203,507.359,42.562,501.602,42.562z M252.562,108.641
		c0-14.238,11.598-25.84,25.84-25.84c14.32,0,25.918,11.602,25.918,25.84c0,14.32-11.598,25.922-25.918,25.922
		C264.16,134.562,252.562,122.961,252.562,108.641z M326.562,108.641c0-14.238,11.52-25.84,25.84-25.84
		c14.32,0,25.918,11.602,25.918,25.84c0,14.32-11.598,25.922-25.918,25.922C338.082,134.562,326.562,122.961,326.562,108.641z
		 M400.481,108.641c0-14.238,11.602-25.84,25.922-25.84c14.238,0,25.84,11.602,25.84,25.84c0,14.32-11.602,25.922-25.84,25.922
		C412.082,134.562,400.481,122.961,400.481,108.641z M456,412.851v0.586H56V168.082h400V412.851z" style="fill: rgb(165, 137, 106);"></path>
	<path class="st0" d="M66.726,302.418l38.18,19.016c0.586,0.278,1.078,0.43,1.492,0.473l0.176,0.011l1.141-0.402l0.254-0.351
		c0.297-0.418,0.508-1.031,0.625-1.871c0.106-0.726,0.16-1.726,0.16-3.008c0-1.422-0.038-2.546-0.105-3.374
		c-0.07-0.895-0.199-1.598-0.391-2.149c-0.222-0.645-0.566-1.141-1.023-1.477c-0.351-0.262-0.805-0.523-1.363-0.785l-16.215-7.52
		l-10.125-4.804l26.91-12.618c0.465-0.23,0.832-0.461,1.117-0.711c0.363-0.312,0.629-0.773,0.813-1.406
		c0.148-0.528,0.25-1.203,0.305-2.07c0.05-0.809,0.078-1.902,0.078-3.286c0-2.203-0.234-3.602-0.726-4.402
		c-0.382-0.625-0.988-0.969-1.703-0.969c-0.438,0-0.906,0.122-1.438,0.379l-38.156,18.93l-0.778,0.664l-0.105,0.145
		c-0.254,0.344-0.438,0.77-0.566,1.297c-0.106,0.446-0.199,1.012-0.27,1.707c-0.066,0.672-0.102,1.453-0.102,2.351
		c0,1.778,0.117,3.09,0.351,4.016C65.535,301.274,66.012,302.012,66.726,302.418z" style="fill: rgb(165, 137, 106);"></path>
	<path class="st0" d="M113.664,339.953c0.551,0.328,1.293,0.555,2.27,0.707c0.894,0.137,2.047,0.211,3.461,0.211
		c1.137,0,2.07-0.047,2.813-0.133c0.766-0.086,1.43-0.226,1.969-0.414c0.602-0.207,1.086-0.492,1.445-0.847
		c0.348-0.352,0.63-0.801,0.844-1.364l29.718-83.633c0.203-0.683,0.258-1.301,0.172-1.839c-0.074-0.462-0.332-1.114-1.14-1.61
		c-0.532-0.328-1.258-0.562-2.227-0.715c-0.878-0.137-2.042-0.206-3.488-0.206c-1.102,0-2.035,0.042-2.809,0.129
		c-0.816,0.09-1.476,0.226-2.008,0.418c-0.59,0.211-1.07,0.508-1.426,0.887c-0.351,0.378-0.621,0.847-0.777,1.37l-29.754,83.539
		c-0.246,0.699-0.328,1.332-0.238,1.887C112.562,338.801,112.824,339.457,113.664,339.953z" style="fill: rgb(165, 137, 106);"></path>
	<path class="st0" d="M160.641,321.714c0.488,0.489,1.238,1.02,2.293,1.626c1.016,0.59,2.278,1.152,3.797,1.683
		c1.496,0.527,3.219,0.977,5.176,1.352c1.949,0.37,4.086,0.562,6.351,0.562c3.348,0,6.547-0.446,9.5-1.328
		c2.973-0.891,5.614-2.238,7.844-4.004c2.246-1.782,4.05-4.027,5.359-6.684c1.313-2.66,1.981-5.785,1.981-9.281
		c0-2.692-0.426-5.066-1.262-7.07c-0.829-1.989-1.938-3.746-3.294-5.223c-1.343-1.461-2.894-2.734-4.609-3.785
		c-1.688-1.027-3.41-1.946-5.164-2.754c-1.73-0.801-3.43-1.559-5.094-2.274c-1.617-0.695-3.066-1.438-4.343-2.23
		c-1.215-0.754-2.188-1.622-2.902-2.574c-0.672-0.902-0.996-1.95-0.996-3.199c0-0.848,0.152-1.66,0.457-2.418
		c0.301-0.742,0.742-1.359,1.363-1.89c0.621-0.535,1.422-0.965,2.371-1.277c0.969-0.317,2.133-0.481,3.465-0.481
		c1.734,0,3.348,0.214,4.785,0.637c1.481,0.434,2.782,0.918,3.91,1.445c1.133,0.539,2.09,1.032,2.867,1.485
		c0.965,0.562,1.633,0.813,2.172,0.813c0.582,0,1.066-0.176,1.446-0.524c0.339-0.312,0.582-0.754,0.742-1.351
		c0.126-0.469,0.219-1.07,0.274-1.797c0.054-0.68,0.078-1.516,0.078-2.5c0-0.883-0.016-1.622-0.051-2.215
		c-0.035-0.633-0.102-1.156-0.191-1.574c-0.102-0.457-0.222-0.82-0.371-1.121c-0.156-0.316-0.43-0.664-0.828-1.066
		c-0.41-0.406-1.133-0.855-2.274-1.406c-1.066-0.515-2.285-0.98-3.656-1.39c-1.363-0.41-2.828-0.734-4.394-0.973
		c-1.566-0.238-3.141-0.359-4.707-0.359c-3.019,0-5.918,0.398-8.621,1.179c-2.73,0.79-5.141,2.004-7.157,3.606
		c-2.031,1.618-3.668,3.672-4.863,6.118c-1.191,2.442-1.801,5.305-1.801,8.508c0,2.785,0.422,5.222,1.258,7.238
		c0.829,2.008,1.93,3.77,3.266,5.246c1.324,1.461,2.847,2.734,4.534,3.785c1.653,1.032,3.36,1.95,5.118,2.762
		c1.726,0.797,3.41,1.554,5.039,2.27c1.582,0.695,2.996,1.437,4.238,2.226c1.187,0.758,2.16,1.625,2.89,2.586
		c0.687,0.902,1.019,1.961,1.019,3.242c0,1.133-0.206,2.168-0.621,3.082c-0.406,0.899-1,1.665-1.766,2.274
		c-0.793,0.626-1.782,1.122-2.93,1.469c-1.176,0.356-2.531,0.535-4.031,0.535c-2.332,0-4.402-0.266-6.157-0.785
		c-1.785-0.531-3.324-1.118-4.609-1.762c-1.293-0.649-2.356-1.238-3.18-1.77c-1.008-0.653-1.778-0.958-2.426-0.958
		c-0.516,0-0.981,0.149-1.371,0.438c-0.39,0.286-0.695,0.73-0.902,1.328c-0.168,0.5-0.289,1.118-0.363,1.887
		c-0.066,0.718-0.106,1.609-0.106,2.668c0,1.606,0.098,2.812,0.297,3.695C159.711,320.402,160.098,321.168,160.641,321.714z" style="fill: rgb(165, 137, 106);"></path>
	<path class="st0" d="M213.438,320.301c1.875,2.168,4.218,3.828,6.973,4.934c2.722,1.098,5.886,1.656,9.394,1.656
		c1.578,0,3.113-0.141,4.606-0.414c1.488-0.274,2.863-0.633,4.133-1.082c1.277-0.446,2.418-0.957,3.422-1.527
		c1.031-0.586,1.754-1.086,2.211-1.52c0.484-0.465,0.785-0.847,0.953-1.199c0.145-0.312,0.262-0.687,0.359-1.156
		c0.09-0.426,0.161-0.949,0.211-1.566c0.051-0.602,0.082-1.347,0.082-2.238c0-1.129-0.039-2.05-0.106-2.77
		c-0.07-0.75-0.176-1.363-0.297-1.847c-0.164-0.629-0.406-1.074-0.754-1.359l-0.98-0.446h-0.309c-0.637,0-1.332,0.313-2.125,0.965
		c-0.618,0.496-1.379,1.054-2.282,1.668c-0.875,0.598-1.918,1.145-3.106,1.637c-1.137,0.469-2.523,0.707-4.129,0.707
		c-1.554,0-2.934-0.282-4.086-0.836c-1.137-0.547-2.098-1.383-2.852-2.481c-0.785-1.133-1.386-2.578-1.793-4.289
		c-0.414-1.754-0.621-3.813-0.621-6.125c0-4.645,0.82-8.192,2.438-10.539c1.57-2.282,3.781-3.387,6.766-3.387
		c1.542,0,2.878,0.211,3.969,0.637c1.133,0.442,2.121,0.934,2.93,1.461c0.843,0.555,1.578,1.059,2.199,1.516
		c0.777,0.574,1.546,0.863,2.293,0.863c0.621,0,1.48-0.293,2.074-1.687c0.382-0.895,0.57-2.329,0.57-4.387
		c0-0.859-0.032-1.586-0.082-2.187c-0.05-0.622-0.121-1.141-0.211-1.57c-0.102-0.496-0.25-0.898-0.449-1.23
		c-0.191-0.313-0.485-0.668-0.902-1.086c-0.422-0.422-1.094-0.89-2.047-1.43c-0.922-0.519-1.957-0.988-3.117-1.406
		c-1.153-0.414-2.394-0.742-3.715-0.981c-1.328-0.242-2.683-0.363-4.062-0.363c-3.336,0-6.449,0.539-9.254,1.598
		c-2.832,1.07-5.313,2.734-7.383,4.942c-2.066,2.203-3.691,5.007-4.84,8.339c-1.136,3.309-1.71,7.278-1.71,11.794
		c0,3.914,0.473,7.449,1.406,10.5C210.156,315.492,211.578,318.145,213.438,320.301z" style="fill: rgb(165, 137, 106);"></path>
	<path class="st0" d="M255.027,325.546c0.547,0.188,1.234,0.329,2.106,0.414c0.817,0.09,1.855,0.133,3.121,0.133
		s2.305-0.043,3.122-0.133c0.871-0.086,1.558-0.226,2.109-0.414c0.641-0.222,1.098-0.511,1.402-0.894
		c0.321-0.402,0.489-0.871,0.489-1.398l-0.133-27.21c0.906-1.426,1.758-2.63,2.55-3.598c0.774-0.946,1.516-1.707,2.211-2.262
		c0.679-0.546,1.336-0.945,1.953-1.195c0.594-0.242,1.188-0.363,1.77-0.363c0.531,0,1.016,0.051,1.45,0.153
		c0.476,0.109,0.906,0.23,1.305,0.355l1.094,0.367c0.426,0.148,0.82,0.222,1.179,0.222c0.524,0,0.969-0.144,1.34-0.426
		c0.359-0.282,0.629-0.711,0.817-1.32c0.148-0.493,0.262-1.137,0.332-1.969c0.066-0.782,0.102-1.786,0.102-3.008
		c0-1.211-0.016-2.172-0.047-2.875c-0.039-0.75-0.098-1.312-0.168-1.687c-0.078-0.41-0.164-0.73-0.274-0.989l-0.472-0.722
		l-0.137-0.125c-0.266-0.242-0.637-0.45-1.145-0.641c-0.43-0.164-0.934-0.305-1.508-0.434c-0.566-0.121-1.113-0.211-1.644-0.266
		c-0.524-0.05-1.02-0.078-1.477-0.078c-0.996,0-2.008,0.137-3.004,0.402c-1.016,0.274-2.039,0.758-3.043,1.438
		c-0.976,0.66-2.008,1.562-3.074,2.68c-0.422,0.442-0.867,0.988-1.312,1.523c-0.164,0.153-0.321,0.301-0.508,0.45v-2.805
		c0-0.504-0.133-0.954-0.394-1.34c-0.254-0.386-0.653-0.699-1.184-0.934c-0.465-0.199-1.07-0.344-1.859-0.438
		c-0.718-0.086-1.633-0.129-2.734-0.129c-1.07,0-1.957,0.043-2.668,0.129c-0.754,0.094-1.367,0.234-1.867,0.426
		c-0.602,0.23-1.031,0.543-1.297,0.946c-0.258,0.386-0.39,0.836-0.39,1.34v44.382c0,0.527,0.164,0.996,0.484,1.398
		C253.922,325.035,254.383,325.324,255.027,325.546z" style="fill: rgb(165, 137, 106);"></path>
	<path class="st0" d="M296.426,271.363c3.039,0,5.102-0.55,6.305-1.676c1.219-1.141,1.809-3.05,1.809-5.843
		c0-2.688-0.574-4.543-1.758-5.665c-1.168-1.113-3.215-1.652-6.254-1.652c-3.078,0-5.152,0.558-6.336,1.707
		c-1.199,1.156-1.781,3.074-1.781,5.859c0,2.687,0.57,4.535,1.734,5.641C291.297,270.828,293.355,271.363,296.426,271.363z" style="fill: rgb(165, 137, 106);"></path>
	<path class="st0" d="M301.73,276.66c-0.55-0.211-1.242-0.363-2.117-0.473c-0.821-0.102-1.867-0.156-3.137-0.156
		c-1.27,0-2.317,0.054-3.141,0.156c-0.875,0.11-1.562,0.262-2.114,0.473c-0.629,0.238-1.082,0.535-1.378,0.91
		c-0.321,0.402-0.489,0.871-0.489,1.398v44.285c0,0.527,0.168,0.996,0.489,1.398c0.301,0.383,0.762,0.672,1.402,0.894
		c0.55,0.188,1.238,0.329,2.109,0.414c0.817,0.09,1.856,0.133,3.122,0.133c1.266,0,2.305-0.043,3.121-0.133
		c0.871-0.086,1.558-0.226,2.106-0.414c0.645-0.222,1.102-0.511,1.406-0.894c0.32-0.402,0.484-0.871,0.484-1.398v-44.285
		c0-0.527-0.164-0.996-0.484-1.398C302.813,277.195,302.359,276.898,301.73,276.66z" style="fill: rgb(165, 137, 106);"></path>
	<path class="st0" d="M316.25,343.226c0.55,0.211,1.238,0.363,2.113,0.473c0.82,0.102,1.871,0.156,3.141,0.156
		c1.27,0,2.316-0.054,3.137-0.156c0.875-0.11,1.566-0.262,2.117-0.473c0.637-0.242,1.094-0.554,1.394-0.953
		c0.313-0.418,0.469-0.891,0.469-1.406v-11.539l0.102-7.332c0.547,0.477,1.09,0.926,1.618,1.332c1.039,0.797,2.09,1.461,3.141,2
		c1.07,0.543,2.191,0.953,3.332,1.215c1.137,0.262,2.394,0.394,3.746,0.394c3.234,0,6.16-0.633,8.688-1.879
		c2.535-1.25,4.675-3.058,6.378-5.382c1.68-2.297,2.973-5.114,3.84-8.367c0.863-3.227,1.301-6.891,1.301-10.895
		c0-3.398-0.344-6.64-1.015-9.64c-0.684-3.035-1.79-5.738-3.278-8.035c-1.512-2.332-3.496-4.192-5.894-5.531
		c-2.41-1.34-5.34-2.024-8.727-2.024c-1.617,0-3.168,0.176-4.601,0.524c-1.438,0.347-2.852,0.882-4.2,1.59
		c-1.343,0.707-2.656,1.582-3.949,2.633c-0.496,0.402-1.004,0.879-1.512,1.332c-0.305,0.23-0.55,0.457-0.906,0.68v-3.07
		c0-0.504-0.133-0.954-0.394-1.34c-0.262-0.394-0.683-0.711-1.262-0.942c-0.488-0.195-1.094-0.336-1.851-0.43
		c-0.711-0.086-1.582-0.129-2.618-0.129c-1.07,0-1.957,0.043-2.668,0.129c-0.758,0.094-1.363,0.234-1.851,0.43
		c-0.578,0.23-1,0.547-1.262,0.942c-0.262,0.386-0.394,0.836-0.394,1.34v61.996c0,0.515,0.16,0.988,0.468,1.406
		C315.156,342.672,315.61,342.984,316.25,343.226z M345.617,295.996c0.274,1.699,0.41,3.473,0.41,5.313
		c0,1.629-0.168,3.277-0.504,4.906c-0.328,1.602-0.843,3.055-1.531,4.317c-0.664,1.226-1.523,2.226-2.562,2.977
		c-1.008,0.73-2.199,1.082-3.656,1.082c-1.547,0-3.008-0.535-4.461-1.641c-1.531-1.164-3.168-2.843-4.692-4.472l-0.168-14.122
		c0.965-1.289,1.887-2.371,2.758-3.242c0.847-0.851,1.679-1.546,2.48-2.082c0.774-0.516,1.535-0.89,2.266-1.114
		c0.73-0.222,1.473-0.336,2.215-0.336c1.469,0,2.695,0.356,3.652,1.055c0.996,0.726,1.813,1.722,2.43,2.953
		C344.89,292.867,345.348,294.347,345.617,295.996z" style="fill: rgb(165, 137, 106);"></path>
	<path class="st0" d="M366.73,288.179h4.473v21.887c0,2.789,0.297,5.242,0.879,7.297c0.598,2.11,1.546,3.89,2.828,5.293
		c1.285,1.41,2.926,2.465,4.878,3.141c1.906,0.66,4.176,0.992,6.746,0.992c0.957,0,1.91-0.05,2.851-0.156
		c0.95-0.102,1.829-0.25,2.641-0.438c0.832-0.195,1.558-0.43,2.18-0.695c0.695-0.297,1.214-0.637,1.602-1.039
		c0.406-0.434,0.71-1.098,0.93-2.035c0.199-0.851,0.297-2.012,0.297-3.55c0-0.977-0.043-1.782-0.133-2.406
		c-0.09-0.645-0.191-1.16-0.297-1.535l-0.512-1.008l-0.274-0.172c-0.316-0.203-0.668-0.308-1.027-0.308l-0.942,0.175l-1.16,0.45
		c-0.386,0.137-0.82,0.258-1.316,0.367c-0.469,0.102-1.008,0.152-1.606,0.152c-1.66,0-2.762-0.465-3.363-1.418
		c-0.672-1.066-1.012-2.746-1.012-4.996v-19.997h8.852c0.687,0,1.629-0.293,2.222-1.687c0.382-0.894,0.566-2.281,0.566-4.238
		c0-1.004-0.043-1.851-0.133-2.542c-0.09-0.75-0.234-1.34-0.434-1.801c-0.234-0.531-0.543-0.934-0.93-1.188
		c-0.39-0.262-0.84-0.394-1.344-0.394h-8.801v-9.05c0-0.52-0.16-0.993-0.469-1.406c-0.301-0.394-0.746-0.707-1.363-0.95
		c-0.543-0.214-1.246-0.363-2.141-0.453c-0.839-0.086-1.886-0.129-3.148-0.129c-1.226,0-2.258,0.042-3.098,0.129
		c-0.894,0.09-1.598,0.234-2.157,0.449c-0.648,0.246-1.105,0.57-1.39,0.985c-0.278,0.406-0.426,0.871-0.426,1.375v9.05h-4.422
		c-0.504,0-0.954,0.133-1.344,0.394c-0.387,0.254-0.695,0.657-0.93,1.188c-0.199,0.461-0.344,1.05-0.434,1.801
		c-0.09,0.691-0.133,1.538-0.133,2.542c0,1.958,0.187,3.344,0.566,4.238C365.102,287.886,366.043,288.179,366.73,288.179z" style="fill: rgb(165, 137, 106);"></path>
	<path class="st0" d="M405.562,308.934c-0.496,0.211-0.89,0.449-1.195,0.734c-0.351,0.328-0.61,0.785-0.789,1.41
		c-0.149,0.527-0.246,1.206-0.301,2.07c-0.055,0.809-0.078,1.906-0.078,3.29c0,1.039,0.043,1.894,0.133,2.57
		c0.098,0.781,0.289,1.378,0.574,1.82c0.453,0.695,1.035,0.89,1.453,0.934l0.211,0.008c0.442,0,0.914-0.129,1.442-0.394
		l38.121-18.887l0.832-0.613l0.137-0.188c0.25-0.336,0.442-0.762,0.586-1.301c0.126-0.469,0.223-1.042,0.301-1.722
		c0.066-0.656,0.102-1.43,0.102-2.328c0-1.79-0.133-3.118-0.406-4.07c-0.324-1.121-0.808-1.813-1.461-2.114l-38.206-19.054
		c-0.563-0.285-1.051-0.442-1.676-0.496l-1.157,0.402l-0.254,0.355c-0.301,0.418-0.5,1.039-0.598,1.89
		c-0.09,0.719-0.133,1.711-0.133,2.985c0,1.414,0.023,2.535,0.078,3.359c0.054,0.898,0.172,1.606,0.363,2.164
		c0.222,0.645,0.57,1.145,1.019,1.481c0.375,0.27,0.844,0.527,1.418,0.781l16.214,7.52l10.125,4.805L405.562,308.934z" style="fill: rgb(165, 137, 106);"></path>
</g>
</svg>
